<?xml version="1.0" encoding="UTF-8"?>
<!DOCTYPE svg PUBLIC "-//W3C//DTD SVG 1.1//EN" "http://www.w3.org/Graphics/SVG/1.1/DTD/svg11.dtd">
<!-- Creator: CorelDRAW X8 -->
<svg xmlns="http://www.w3.org/2000/svg" xml:space="preserve" width="210mm" height="210mm" version="1.1" style="shape-rendering:geometricPrecision; text-rendering:geometricPrecision; image-rendering:optimizeQuality; fill-rule:evenodd; clip-rule:evenodd"
viewBox="0 0 21000 21000"
 xmlns:xlink="http://www.w3.org/1999/xlink"
 zoomAndPan="magnify">
 <defs>
  <style type="text/css">
   <![CDATA[
    .str6 {stroke:black;stroke-width:84.66}
    .str7 {stroke:black;stroke-width:67.73}
    .str8 {stroke:black;stroke-width:42.33}
    .str0 {stroke:black;stroke-width:167.96}
    .str4 {stroke:black;stroke-width:20}
    .str5 {stroke:#FCE6C2;stroke-width:20}
    .str10 {stroke:#FED18B;stroke-width:20}
    .str3 {stroke:#734F2B;stroke-width:7.62}
    .str2 {stroke:#734F2B;stroke-width:7.62}
    .str1 {stroke:#996938;stroke-width:7.62}
    .str9 {stroke:#FED18B;stroke-width:7.62}
    .fil0 {fill:none}
    .fil5 {fill:black}
    .fil17 {fill:black}
    .fil11 {fill:#020001}
    .fil22 {fill:#333333}
    .fil8 {fill:#724E2A}
    .fil7 {fill:#734F2B}
    .fil24 {fill:#963C15}
    .fil25 {fill:#963C15}
    .fil9 {fill:#996938}
    .fil3 {fill:#996938}
    .fil4 {fill:#996A39}
    .fil21 {fill:#B24924}
    .fil15 {fill:#BF9E69}
    .fil19 {fill:#C45D18}
    .fil13 {fill:#CAB299}
    .fil10 {fill:#CCB39A}
    .fil12 {fill:#CCB49B}
    .fil26 {fill:#DB9018}
    .fil14 {fill:#E50053}
    .fil1 {fill:#F0AE43}
    .fil20 {fill:#F2B952}
    .fil27 {fill:#F3B145}
    .fil18 {fill:#FCE6C2}
    .fil6 {fill:#FED18B}
    .fil23 {fill:#FED18B}
    .fil16 {fill:#FEFCFD}
    .fil2 {fill:#FFFAFC}
   ]]>
  </style>
 </defs>
 <g id="Warstwa_x0020_1">
  <metadata id="CorelCorpID_0Corel-Layer"/>
  <g id="misiemieise.svg">
   <path class="fil0 str0" d="M2913 11901l98 40c10,6 6,20 -3,17l-329 -104c-155,72 -189,229 -136,384 52,157 245,262 415,204l782 -263c290,-97 304,-515 3,-624l-338 -123 197 -295c174,-269 -90,-593 -379,-496l-783 264c-170,57 -260,257 -207,414 52,153 174,260 341,224l199 -282c7,-11 18,1 12,11l-54 87c-69,118 -123,239 -92,330 29,94 147,162 274,212zm0 0"/>
   <path class="fil0 str0" d="M3049 13239c93,166 299,219 457,129l712 -402c158,-89 214,-289 120,-455 -91,-161 -291,-216 -449,-127l-711 402c-159,90 -220,293 -129,453zm0 0"/>
   <path class="fil0 str0" d="M5182 14229c143,-117 160,-328 42,-472l-288 -352c-378,-472 -966,-113 -874,341 14,59 35,121 68,169 6,17 -12,27 -23,14 -62,-76 -110,-178 -120,-275 -110,-29 -200,-7 -288,64 -115,95 -161,332 -48,470l290 355c420,514 1086,32 831,-482 -7,-16 15,-25 25,-12 48,69 84,145 97,224 101,44 204,25 288,-44zm0 0"/>
   <path class="fil0 str0" d="M4870 15488c144,125 355,105 474,-32l536 -617c119,-138 105,-345 -40,-470 -138,-120 -345,-106 -465,32l-535 617c-119,137 -109,349 30,470zm0 0"/>
   <path class="fil0 str0" d="M6078 15020l-430 700c-95,153 -49,358 110,456l469 289c198,121 387,2 455,-109 46,-75 57,-112 58,-154 -114,38 -218,-1 -305,-67 -13,-8 0,-29 13,-21 80,37 165,59 254,33 128,-30 230,-156 246,-291 -117,31 -227,-7 -317,-80 -9,-13 2,-31 14,-23 109,62 213,82 327,24 227,-109 260,-442 35,-580l-466 -287c-167,-103 -366,-48 -463,110zm0 0"/>
   <path class="fil0 str0" d="M8044 16060l-202 796c-44,174 60,356 241,402l534 136c225,57 370,-113 402,-239 22,-85 21,-125 9,-164 -97,70 -208,64 -311,27 -14,-4 -8,-29 6,-25 88,12 176,8 253,-44 112,-66 172,-217 148,-351 -103,65 -219,61 -327,18 -12,-9 -7,-29 7,-26 123,27 228,15 319,-74 184,-171 117,-500 -139,-565l-530 -135c-191,-48 -364,63 -410,244zm0 0"/>
   <path class="fil0 str0" d="M10513 17153l71 -78c9,-8 21,1 15,9l-211 273c15,170 151,256 314,260 165,4 330,-140 335,-320l22 -825c8,-306 -379,-463 -585,-217l-232 275 -210 -287c-192,-256 -587,-120 -596,186l-21 825c-5,180 152,333 318,337 161,4 303,-74 327,-243l-196 -284c-8,-10 7,-16 15,-7l62 81c88,105 182,197 278,200 99,4 203,-83 294,-185zm0 0"/>
   <path class="fil0 str0" d="M11858 17504c180,-38 298,-223 260,-403l-34 -166c-4,-17 10,-24 20,-9l78 193c330,-57 546,-380 478,-706 -67,-324 -377,-531 -703,-464l-404 84c-191,40 -309,220 -272,403l167 803c38,187 219,304 410,265zm161 -1037c43,-9 87,16 96,59 9,43 -20,88 -63,97 -11,2 -22,0 -34,-4l-29 -142c10,-6 20,-8 30,-10zm0 0"/>
   <path class="fil0 str0" d="M13433 17054c183,3 334,-141 339,-325l1 -150 -147 -190c-9,-13 4,-20 11,-15l320 272c138,119 346,101 465,-37 120,-139 101,-349 -36,-464l-710 -603c-216,-184 -544,-31 -549,249l-17 928c-4,179 141,332 323,335zm0 0"/>
   <path class="fil0 str0" d="M14906 14539l-529 393c-150,111 -174,320 -64,468 106,143 313,179 462,68l292 392c111,149 323,182 468,75 147,-110 179,-324 68,-474l-293 -390c149,-112 174,-320 68,-463 -110,-148 -322,-181 -472,-69zm0 0"/>
   <path class="fil0 str0" d="M16592 14993c132,-138 123,-349 -8,-475l-591 -565c-131,-126 -339,-121 -471,17 -127,133 -122,340 9,466l591 565c131,126 343,125 470,-8zm0 0"/>
   <path class="fil0 str0" d="M16923 12664c-154,-103 -360,-58 -464,97l-254 377c-343,499 171,958 579,738 53,-30 106,-68 142,-114 14,-10 30,5 20,19 -55,81 -138,156 -229,194 5,114 52,194 146,257 123,83 364,58 463,-90l256 -380c371,-551 -283,-1049 -701,-656 -13,11 -29,-7 -20,-21 53,-66 116,-122 187,-157 13,-110 -35,-203 -125,-264zm0 0"/>
   <path class="fil0 str0" d="M18218 12599c78,-174 -2,-370 -168,-445l-745 -334c-166,-74 -360,0 -438,174 -75,168 -1,362 164,436l746 334c166,75 366,3 441,-165zm0 0"/>
   <path class="fil0 str0" d="M17421 11578l794 210c174,46 357,-58 405,-238l141 -533c59,-224 -110,-371 -236,-404 -85,-22 -124,-22 -164,-11 70,99 62,209 24,312 -4,14 -28,8 -24,-6 12,-88 9,-176 -42,-254 -65,-112 -216,-174 -350,-151 64,104 59,220 15,327 -9,13 -29,8 -26,-7 28,-123 17,-227 -71,-320 -170,-185 -499,-121 -566,135l-140 528c-50,191 60,365 240,412zm0 0"/>
   <g>
    <g>
     <g>
      <path class="fil1" d="M2913 11901l98 40c10,5 7,20 -3,17l-329 -104c-155,72 -188,229 -136,384 53,157 245,262 416,205l782 -264c289,-97 303,-515 2,-623l-338 -123 197 -296c174,-269 -90,-593 -379,-496l-782 264c-171,57 -260,257 -208,414 52,153 174,260 341,224l199 -282c7,-11 18,1 13,11l-55 87c-69,118 -123,238 -93,330 30,94 148,162 275,212zm0 0z"/>
     </g>
    </g>
   </g>
   <g>
    <g>
     <g>
      <path class="fil1" d="M3049 13239c94,166 299,218 457,129l712 -402c158,-89 214,-289 120,-455 -91,-161 -290,-216 -449,-127l-711 402c-159,90 -220,293 -129,453zm0 0z"/>
     </g>
    </g>
   </g>
   <g>
    <g>
     <g>
      <path class="fil1" d="M5182 14229c143,-117 160,-328 42,-472l-288 -352c-378,-472 -966,-113 -873,341 13,59 34,121 67,169 6,17 -13,27 -23,14 -63,-76 -110,-178 -120,-276 -110,-29 -200,-6 -288,65 -115,94 -161,332 -48,470l290 355c420,514 1086,32 831,-482 -7,-15 14,-25 25,-12 48,69 84,145 97,224 101,44 204,25 288,-44zm0 0z"/>
     </g>
    </g>
   </g>
   <g>
    <g>
     <g>
      <path class="fil1" d="M4870 15488c144,125 355,105 474,-32l536 -617c119,-138 105,-345 -39,-470 -140,-121 -346,-106 -466,32l-535 617c-119,137 -109,349 30,470zm0 0z"/>
     </g>
    </g>
   </g>
   <g>
    <g>
     <g>
      <path class="fil1" d="M6078 15020l-430 700c-95,153 -49,358 110,456l469 288c198,122 387,3 455,-108 46,-75 57,-113 58,-154 -114,38 -218,-1 -305,-67 -13,-8 0,-29 13,-21 80,37 165,59 255,33 126,-30 229,-156 245,-291 -117,31 -227,-7 -317,-80 -9,-13 2,-31 14,-23 109,62 213,82 327,24 227,-109 260,-442 35,-581l-465 -286c-168,-103 -366,-48 -464,110zm0 0z"/>
     </g>
    </g>
   </g>
   <g>
    <g>
     <g>
     </g>
    </g>
   </g>
   <g>
    <g>
     <g>
      <path class="fil1" d="M8044 16060l-202 796c-45,174 60,356 241,402l534 136c225,57 370,-113 402,-239 22,-85 21,-125 9,-164 -97,70 -208,64 -311,27 -14,-4 -8,-28 6,-25 88,12 175,8 253,-44 112,-66 172,-217 148,-351 -103,65 -219,61 -327,19 -12,-10 -7,-30 7,-27 123,27 227,15 319,-74 184,-172 116,-500 -139,-565l-530 -135c-191,-48 -364,63 -410,244zm0 0z"/>
     </g>
    </g>
   </g>
   <g>
    <g>
     <g>
      <path class="fil1" d="M10513 17153l71 -78c9,-8 21,1 15,9l-211 273c15,170 151,255 314,260 165,4 330,-141 335,-320l22 -825c8,-306 -380,-463 -585,-217l-232 275 -210 -287c-192,-256 -587,-120 -595,186l-22 825c-5,180 152,333 318,337 161,4 303,-74 327,-243l-196 -284c-8,-10 7,-16 15,-7l63 81c87,105 181,197 277,200 98,4 203,-83 294,-185zm0 0z"/>
     </g>
    </g>
   </g>
   <g>
    <g>
     <g>
      <path class="fil1" d="M11858 17503c180,-37 298,-222 261,-402l-35 -166c-3,-17 10,-24 20,-9l78 194c330,-58 546,-381 478,-707 -67,-324 -377,-531 -703,-464l-404 84c-191,40 -309,220 -271,403l166 804c38,186 219,303 410,263zm161 -1036c43,-9 87,16 96,59 9,43 -20,88 -63,97 -11,2 -22,0 -33,-4l-30 -142c10,-6 20,-8 30,-10zm0 0z"/>
     </g>
    </g>
   </g>
   <g>
    <g>
     <g>
      <path class="fil1" d="M13433 17054c183,3 334,-141 339,-325l1 -150 -148 -190c-8,-13 5,-21 12,-15l320 272c138,119 346,101 465,-37 120,-139 101,-349 -36,-464l-710 -603c-216,-183 -545,-31 -549,249l-17 928c-4,179 141,332 323,335zm0 0z"/>
     </g>
    </g>
   </g>
   <g>
    <g>
     <g>
      <path class="fil1" d="M14906 14538l-529 394c-150,111 -174,320 -65,468 107,143 314,179 464,68l291 392c111,149 323,182 467,75 148,-110 180,-324 69,-474l-293 -390c150,-111 174,-320 68,-463 -110,-148 -322,-181 -472,-70zm0 0z"/>
     </g>
    </g>
   </g>
   <g>
    <g>
     <g>
      <path class="fil1" d="M16592 14993c132,-138 123,-349 -9,-475l-590 -565c-132,-126 -339,-121 -471,17 -127,133 -122,340 9,466l591 565c131,126 343,125 470,-8zm0 0z"/>
     </g>
    </g>
   </g>
   <g>
    <g>
     <g>
      <path class="fil1" d="M16923 12664c-153,-103 -360,-58 -464,97l-254 377c-343,499 171,958 579,738 53,-30 106,-68 142,-114 15,-10 30,5 20,19 -55,81 -138,156 -229,194 5,114 52,194 146,257 123,83 364,58 464,-90l255 -380c371,-551 -283,-1049 -701,-657 -13,12 -29,-6 -19,-20 52,-66 115,-122 186,-157 13,-110 -35,-203 -125,-264zm0 0z"/>
     </g>
    </g>
   </g>
   <g>
    <g>
     <g>
      <path class="fil1" d="M18218 12599c78,-174 -2,-370 -168,-444l-745 -334c-167,-75 -360,-1 -438,173 -76,168 -2,362 165,436l745 334c166,75 366,3 441,-165zm0 0z"/>
     </g>
    </g>
   </g>
   <g>
    <g>
     <g>
      <path class="fil1" d="M17421 11578l794 210c174,46 357,-58 405,-238l141 -532c59,-225 -111,-372 -236,-405 -85,-22 -124,-22 -164,-11 69,99 62,210 24,312 -4,14 -28,8 -24,-6 12,-88 9,-175 -42,-254 -65,-112 -216,-174 -350,-151 64,104 59,220 16,327 -10,13 -30,7 -27,-7 28,-122 17,-227 -71,-320 -170,-185 -499,-120 -566,135l-140 528c-50,191 60,365 240,412zm0 0z"/>
     </g>
    </g>
   </g>
  </g>
  <path class="fil2" d="M12122 4705c-55,15 -102,33 -122,139 -13,66 13,126 89,114 118,-18 184,-296 33,-253z"/>
  <path class="fil2" d="M13091 5630c-55,16 -101,33 -122,139 -12,66 14,127 90,115 118,-19 183,-297 32,-254z"/>
  <path class="fil3 str1" d="M5117 10496c-40,18 -77,50 -92,100 -8,253 74,414 216,593 44,55 81,89 128,137 219,226 471,295 787,280l30 -18c-28,103 -77,198 -105,318 -26,111 -119,354 -126,475 -140,-179 421,727 794,801 191,120 390,148 687,152 175,1 527,-85 595,-118 71,73 889,-381 785,-673 -6,-87 -8,-270 -41,-331 -51,-91 -94,-136 -107,-269 3,2 26,12 28,13 232,177 635,553 984,529 144,-10 251,-127 264,-218 11,18 16,42 19,58 0,2 7,37 7,38 14,37 -5,13 21,36 21,-94 16,-171 -20,-246l-10 78c-30,9 12,21 -16,-5 -2,-1 -12,-16 -13,-19 -88,-161 -57,-128 -189,-303l-531 -572c-74,-78 -203,-173 -260,-232 -23,-24 -9,-1 -30,-36 -30,18 -53,28 -70,56 -57,79 -179,184 -259,242 -563,406 -1293,400 -1884,50 -163,-97 -335,-253 -456,-396 -31,-36 -27,-23 -28,-56l3 -17c-120,-16 -442,-251 -507,-317 -114,-115 -282,-177 -455,-161 -42,3 -136,35 -149,31z"/>
  <path class="fil4" d="M6394 10433c-52,-284 188,-450 364,-535 626,-301 1814,-5 1915,582 47,272 -184,443 -355,522 -222,103 -510,141 -798,116 -263,-22 -495,-94 -697,-203 -170,-92 -389,-264 -429,-482zm2086 -863c-99,331 -488,179 -383,-167 105,-346 489,-186 383,167zm-1460 -519c139,-43 224,99 229,230 4,141 -63,280 -179,307 -261,60 -333,-449 -50,-537zm-1050 -304l-34 42c-13,22 -14,27 -30,53l-157 311c-59,161 -94,332 -85,525l10 21c1,2 2,7 4,10 68,207 78,294 211,521 189,321 453,588 797,749 746,348 1762,274 2387,-288 221,-199 193,-199 337,-383l32 -35c82,-194 122,-405 93,-643 -16,-130 -109,-521 -179,-589 -15,10 9,40 -36,-22 -99,-137 -201,-267 -323,-386l-264 -204c-583,-383 -1367,-465 -2018,-193 -144,61 -293,141 -408,228 -122,93 -284,246 -316,271 -19,14 -1,4 -21,12z"/>
  <path class="fil5" d="M5025 10596c15,-50 52,-82 92,-100 82,-67 218,-91 349,-69 218,37 297,175 524,326 196,130 79,48 229,186l262 185c667,414 1358,456 2078,143 90,-39 224,-127 293,-147 17,-28 40,-38 70,-56l37 -22c60,31 234,194 296,246 93,79 189,173 270,258 169,175 319,333 446,607 36,75 41,152 20,246 -378,586 -1243,-313 -1295,-443 -2,-1 -25,-11 -28,-13 13,133 56,178 107,269 33,61 35,244 41,331 9,139 -220,422 -654,579 -197,71 -696,145 -717,287 415,70 1425,-376 1482,-785l-15 -273c101,69 156,139 315,224 177,95 428,183 638,82 488,-234 131,-766 -117,-1034l-629 -594c-29,-24 -56,-39 -76,-69 63,-16 230,-219 275,-277 133,-176 206,-357 269,-570 81,-272 40,-505 -16,-747 47,-23 113,-29 172,-56 60,-27 104,-47 157,-83 212,-145 313,-371 281,-651 -56,-497 -600,-880 -1104,-507 -64,48 -204,174 -225,254 -41,-22 -63,-39 -103,-65 -38,-25 -67,-39 -106,-62 -186,-111 -518,-231 -748,-259 -54,-7 -89,-10 -159,-10 -138,1 -89,-27 -313,-2 -129,15 -232,-8 -449,55 -46,13 -86,21 -131,36 -50,17 -82,38 -138,43 -153,-659 -1058,-767 -1309,-86 -64,176 -68,393 22,582 75,157 198,262 352,343 -264,499 -260,1001 16,1507 19,35 34,47 44,88 -136,-91 -82,-101 -314,-166 -356,-100 -1041,208 -313,1069 190,225 501,447 759,584 0,60 -12,65 -12,131 -1,70 -9,89 -12,144 -5,98 32,153 55,247 22,95 201,362 340,466 200,198 671,485 1112,441 -7,-8 30,-52 30,-52 -769,-79 -1477,-684 -1427,-1053 7,-120 7,-287 33,-398 28,-120 77,-215 105,-318l-30 18c-32,64 -110,116 -156,266 -97,-36 -283,-167 -363,-227 -199,-151 -441,-373 -553,-598 -55,-110 -152,-327 -59,-451zm805 -103l0 0zm-166 -815c-9,-193 26,-364 85,-525l157 -311c16,-26 17,-31 30,-53l34 -42c443,-599 1067,-772 1826,-729 581,33 1348,499 1560,1023 70,68 163,459 179,589 29,238 -11,449 -93,643 -68,216 -204,378 -327,507 -428,450 -1158,688 -1831,572 -456,-79 -821,-321 -1089,-553 -213,-184 -527,-675 -531,-1121zm3942 -1168c86,47 187,368 -183,470l-44 -86 -198 -272c137,-183 353,-219 425,-112zm-667 -111l-23 -25c80,-112 31,-62 134,-165 56,-55 97,-87 175,-125 173,-85 287,-90 481,-38 45,12 161,101 185,125 32,32 106,126 123,185 7,8 8,8 17,22 1,2 3,5 4,8l41 115c11,46 24,117 24,169 3,338 -262,571 -557,602l-41 -122 -38 -84c43,-32 107,-45 152,-75 49,-34 73,-63 107,-121 67,-116 58,-263 -6,-369 -147,-242 -492,-117 -587,55 -39,-18 -68,-50 -98,-78 -15,-14 -27,-27 -43,-41l-50 -38zm-2856 81c-17,25 -39,47 -58,71 -182,-81 -274,-348 -148,-462 102,-127 373,-145 453,186l-247 205zm-188 229c-23,33 -44,74 -77,105 -139,-40 -277,-194 -333,-326 -62,-145 -76,-424 22,-540 17,-92 153,-224 222,-266 76,-47 285,-121 391,-67 130,2 279,96 341,161 79,84 134,193 169,328 -32,20 -1,5 -37,10 -24,28 -146,85 -184,109 -69,-152 -75,-200 -209,-271 -124,-65 -280,-29 -358,47 -306,300 109,613 117,624 -19,21 -50,61 -64,86z"/>
  <path class="fil6" d="M7633 10303c21,112 61,175 188,179 182,6 134,-196 242,-97 26,58 -46,138 -89,165 -57,37 -59,6 -87,57 -38,69 -117,333 -421,289 -250,-37 -307,-196 -342,-367 -20,-96 -188,-117 -137,-281 159,-42 35,114 202,156 127,32 227,-27 264,-115 -35,-30 -180,-95 -176,-216 6,-172 532,-95 552,39 17,106 -124,152 -196,191zm-1239 130c40,218 259,390 429,482 202,109 434,181 697,203 288,25 576,-13 798,-116 171,-79 402,-250 355,-522 -101,-587 -1289,-883 -1915,-582 -176,85 -416,251 -364,535z"/>
  <path class="fil7 str2" d="M9442 10273l-32 35c-144,184 -116,184 -337,383 -625,562 -1641,636 -2387,288 -344,-161 -608,-428 -797,-749 -133,-227 -143,-314 -211,-521 -2,-3 -3,-8 -4,-10l-10 -21c4,446 318,937 531,1121 268,232 633,474 1089,553 673,116 1403,-122 1831,-572 123,-129 259,-291 327,-507z"/>
  <path class="fil8 str2" d="M6948 13252c23,6 62,25 162,58 98,32 203,51 312,51 68,0 355,-43 419,-67 61,-30 311,-110 390,-200 -48,27 -210,71 -309,91 -205,40 -314,85 -524,82 -297,-3 -490,-43 -732,-184 202,172 259,143 282,169z"/>
  <path class="fil9 str1" d="M8939 8399l50 38c16,14 28,27 43,41 30,28 59,60 98,78 95,-172 440,-297 587,-55 64,106 73,253 6,369 -34,58 -58,87 -107,121 -45,30 -109,43 -152,75l38 84c73,28 196,-45 245,-77 65,-42 126,-103 169,-165 129,-188 119,-299 98,-552 -17,-59 -91,-153 -123,-185 -24,-24 -140,-113 -185,-125 -13,7 -5,5 -29,8 -81,12 -212,-37 -434,84 -68,36 -115,68 -165,112 -29,25 -44,44 -67,76 -20,27 -42,57 -72,73z"/>
  <path class="fil9 str1" d="M5507 7948c-20,186 -3,342 76,478 55,94 200,260 312,283 14,-25 45,-65 64,-86 -8,-11 -423,-324 -117,-624 78,-76 234,-112 358,-47 134,71 140,119 209,271 38,-24 160,-81 184,-109 -67,-151 -86,-208 -184,-311 -60,-63 -192,-161 -318,-182l29 -6c-106,-54 -315,20 -391,67 -69,42 -205,174 -222,266z"/>
  <path class="fil5" d="M7271 10709c158,-162 384,-61 428,48 -46,50 -140,91 -233,77 -47,-8 -88,-30 -117,-49 -48,-32 -64,-43 -78,-76zm405 -637c-17,25 -3,23 -51,31 -64,11 -142,0 -184,-50 78,-18 167,0 235,19zm-689 176c-51,164 117,185 137,281 35,171 92,330 342,367 304,44 383,-220 421,-289 28,-51 30,-20 87,-57 43,-27 115,-107 89,-165 -108,-99 -60,103 -242,97 -127,-4 -167,-67 -188,-179 72,-39 213,-85 196,-191 -20,-134 -546,-211 -552,-39 -4,121 141,186 176,216 -37,88 -137,147 -264,115 -167,-42 -43,-198 -202,-156z"/>
  <path class="fil7 str3" d="M8852 11120c-69,20 -203,108 -293,147 -720,313 -1411,271 -2078,-143l-262 -185 9 4 -3 17c1,33 -3,20 28,56 121,143 293,299 456,396 591,350 1321,356 1884,-50 80,-58 202,-163 259,-242z"/>
  <path class="fil10" d="M5970 8747c20,-8 2,2 21,-12 32,-25 194,-178 316,-271 115,-87 264,-167 408,-228 651,-272 1435,-190 2018,193l264 204c122,119 224,249 323,386 45,62 21,32 36,22 -212,-524 -979,-990 -1560,-1023 -759,-43 -1383,130 -1826,729z"/>
  <path class="fil11" d="M8223 9337c98,-63 114,133 45,168 -98,51 -108,-127 -45,-168zm257 233c106,-353 -278,-513 -383,-167 -105,346 284,498 383,167z"/>
  <path class="fil11" d="M7082 9189c84,-64 110,125 42,165 -44,25 -75,-6 -83,-50 -13,-70 11,-93 41,-115zm-62 -138c-26,8 -50,20 -70,35 -22,16 -40,35 -55,56 -123,172 -36,495 175,446 116,-27 183,-166 179,-307 -5,-131 -90,-273 -229,-230z"/>
  <path class="fil8 str2" d="M6156 11606c-316,15 -568,-54 -787,-280 -47,-48 -84,-82 -128,-137 -142,-179 -224,-340 -216,-593 -93,124 4,341 59,451 112,225 354,447 553,598 80,60 266,191 363,227 46,-150 124,-202 156,-266z"/>
  <path class="fil6" d="M5877 8089c9,198 96,287 206,391l247 -205c-80,-331 -351,-313 -453,-186z"/>
  <path class="fil6" d="M9379 8894c91,-8 146,-59 181,-115 59,-93 45,-149 46,-269 -72,-107 -288,-71 -425,112l198 272z"/>
  <path class="fil7 str2" d="M9991 12399c-26,-23 -7,1 -21,-36 0,-1 -7,-36 -7,-38 -3,-16 -8,-40 -19,-58 -13,91 -120,208 -264,218 -349,24 -752,-352 -984,-529 52,130 917,1029 1295,443z"/>
  <path class="fil8 str2" d="M9502 9150l41 122c295,-31 560,-264 557,-602 0,-52 -13,-123 -24,-169l-41 -115c-1,-3 -3,-6 -4,-8 -9,-14 -10,-14 -17,-22 21,253 31,364 -98,552 -43,62 -104,123 -169,165 -49,32 -172,105 -245,77z"/>
  <path class="fil12" d="M8922 11064c21,35 7,12 30,36 57,59 186,154 260,232l531 572c132,175 101,142 189,303 1,3 11,18 13,19 28,26 -14,14 16,5l10 -78c-127,-274 -277,-432 -446,-607 -81,-85 -177,-179 -270,-258 -62,-52 -236,-215 -296,-246l-37 22z"/>
  <path class="fil8 str2" d="M5895 8709c-112,-23 -257,-189 -312,-283 -79,-136 -96,-292 -76,-478 -98,116 -84,395 -22,540 56,132 194,286 333,326 33,-31 54,-72 77,-105z"/>
  <path class="fil13" d="M5117 10496c13,4 107,-28 149,-31 173,-16 341,46 455,161 65,66 387,301 507,317l-9 -4c-150,-138 -33,-56 -229,-186 -227,-151 -306,-289 -524,-326 -131,-22 -267,2 -349,69z"/>
  <path class="fil14" d="M7271 10709c14,33 30,44 78,76 29,19 70,41 117,49 93,14 187,-27 233,-77 -44,-109 -270,-210 -428,-48z"/>
  <path class="fil15" d="M9379 8894l44 86c370,-102 269,-423 183,-470 -1,120 13,176 -46,269 -35,56 -90,107 -181,115z"/>
  <path class="fil15" d="M6083 8480c-110,-104 -197,-193 -206,-391 -126,114 -34,381 148,462 19,-24 41,-46 58,-71z"/>
  <path class="fil13" d="M8939 8399c30,-16 52,-46 72,-73 23,-32 38,-51 67,-76 50,-44 97,-76 165,-112 222,-121 353,-72 434,-84 24,-3 16,-1 29,-8 -194,-52 -308,-47 -481,38 -78,38 -119,70 -175,125 -103,103 -54,53 -134,165l23 25z"/>
  <path class="fil10" d="M6593 8114c36,-5 5,10 37,-10 -35,-135 -90,-244 -169,-328 -62,-65 -211,-159 -341,-161l-29 6c126,21 258,119 318,182 98,103 117,160 184,311z"/>
  <path class="fil2" d="M8223 9337c-63,41 -53,219 45,168 69,-35 53,-231 -45,-168z"/>
  <path class="fil2" d="M7082 9189c-30,22 -54,45 -41,115 8,44 39,75 83,50 68,-40 42,-229 -42,-165z"/>
  <path class="fil16" d="M7676 10072c-68,-19 -157,-37 -235,-19 42,50 120,61 184,50 48,-8 34,-6 51,-31z"/>
  <path class="fil17 str4" d="M6967 9097c-56,-7 -72,42 -203,-81 -5,105 86,210 164,249l39 -168z"/>
  <path class="fil17 str4" d="M8398 9268c54,15 51,66 218,0 -34,100 -157,163 -244,171l26 -171z"/>
  <path class="fil17 str4" d="M7079 9145c-53,-19 -80,26 -180,-123 -29,101 37,223 104,279l76 -156z"/>
  <path class="fil17 str4" d="M8305 9317c56,-7 72,42 202,-82 6,105 -84,210 -162,250l-40 -168z"/>
  <g id="_2418221504352">
   <g>
    <g>
    </g>
   </g>
  </g>
  <path class="fil9 str1" d="M15730 10561c40,19 77,50 91,100 9,253 -73,414 -216,594 -43,55 -80,88 -127,136 -220,226 -471,296 -787,281l-31 -18c29,103 78,197 106,318 26,110 119,354 126,474 140,-178 -422,727 -794,802 -192,119 -391,148 -688,151 -175,2 -526,-85 -594,-118 -71,74 -890,-381 -785,-672 5,-88 7,-270 41,-332 51,-91 94,-136 106,-269 -3,2 -25,12 -28,13 -231,178 -634,553 -983,530 -145,-10 -251,-128 -264,-219 -11,18 -16,42 -19,58 -1,2 -7,38 -8,39 -13,36 5,12 -20,35 -22,-94 -17,-170 20,-246l10 79c30,8 -13,20 16,-6 2,-1 11,-16 13,-18 87,-162 57,-128 189,-304l531 -572c73,-78 203,-172 260,-231 23,-25 9,-2 30,-36 29,17 52,27 70,55 56,79 178,184 258,242 564,407 1294,400 1885,50 163,-96 335,-252 456,-395 31,-36 27,-24 28,-56l-4 -18c121,-15 442,-250 508,-317 114,-115 282,-177 455,-161 41,4 136,35 149,31z"/>
  <path class="fil4" d="M14452 10498c52,-284 -187,-449 -364,-534 -626,-302 -1813,-6 -1914,581 -47,272 184,443 355,522 221,103 510,141 797,117 264,-23 495,-95 698,-204 170,-91 388,-264 428,-482zm-2085 -863c99,331 488,180 382,-167 -105,-345 -488,-186 -382,167zm1460 -519c-139,-42 -224,100 -229,231 -5,140 63,279 178,306 262,61 333,-449 51,-537zm1050 -304l34 43c13,22 14,27 30,52l157 311c59,161 94,332 85,525l-10 21c-1,3 -3,7 -4,10 -68,207 -78,294 -211,522 -189,321 -453,587 -798,748 -745,348 -1761,275 -2386,-288 -221,-199 -194,-198 -337,-383l-33 -34c-81,-195 -121,-406 -92,-644 16,-130 108,-520 179,-589 15,11 -9,40 35,-22 100,-137 201,-267 324,-385l263 -205c584,-382 1367,-465 2019,-192 144,60 293,140 408,227 122,93 283,247 316,271 19,15 0,4 21,12z"/>
  <path class="fil5" d="M15821 10661c-14,-50 -51,-81 -91,-100 -82,-66 -219,-91 -349,-69 -219,37 -297,175 -524,326 -196,131 -79,48 -229,186l-263 186c-666,413 -1357,456 -2077,143 -90,-40 -224,-128 -293,-148 -18,-28 -41,-38 -70,-55l-38 -22c-59,31 -233,193 -295,246 -94,79 -190,172 -271,257 -168,175 -318,334 -445,607 -37,76 -42,152 -20,246 378,586 1243,-313 1294,-443 3,-1 25,-11 28,-13 -12,133 -55,178 -106,269 -34,62 -36,244 -41,332 -9,139 220,421 654,578 197,72 696,145 717,288 -415,69 -1425,-376 -1482,-786l15 -272c-102,68 -156,138 -316,224 -176,94 -427,183 -637,82 -488,-235 -132,-767 117,-1035l629 -594c29,-24 56,-39 75,-68 -62,-17 -230,-219 -274,-278 -133,-176 -207,-356 -270,-569 -80,-272 -40,-506 17,-748 -47,-22 -113,-29 -172,-56 -60,-27 -105,-47 -157,-83 -212,-144 -313,-371 -281,-651 55,-497 599,-880 1103,-507 65,48 205,175 226,254 41,-22 63,-39 103,-65 38,-25 67,-38 106,-62 186,-111 518,-231 748,-259 53,-7 89,-10 159,-9 137,0 89,-28 313,-3 129,15 232,-7 449,55 46,13 85,21 131,37 50,16 81,37 137,42 154,-659 1059,-767 1309,-86 65,176 69,393 -21,582 -76,158 -199,262 -352,343 263,499 260,1001 -16,1507 -19,35 -35,47 -44,88 136,-91 82,-100 314,-166 356,-100 1041,209 313,1069 -191,225 -501,448 -759,584 0,60 11,66 12,132 1,69 9,88 12,144 5,97 -33,152 -55,246 -22,95 -201,362 -340,466 -200,199 -671,485 -1112,442 7,-9 -31,-52 -31,-52 770,-80 1478,-685 1428,-1053 -7,-121 -7,-288 -33,-398 -28,-121 -77,-215 -106,-318l31 18c32,64 110,116 156,265 97,-36 283,-166 363,-227 199,-151 441,-372 553,-598 55,-109 151,-326 58,-451zm-804 -103l0 0zm166 -815c9,-193 -26,-364 -85,-525l-157 -311c-16,-25 -17,-30 -30,-52l-34 -43c-443,-599 -1067,-772 -1827,-729 -580,33 -1348,499 -1559,1023 -71,69 -163,459 -179,589 -29,238 11,449 92,644 69,215 204,377 327,507 428,449 1158,687 1831,571 456,-79 822,-321 1090,-553 213,-184 527,-675 531,-1121zm-3942 -1168c-86,47 -187,368 182,470l45 -86 197 -271c-136,-184 -352,-220 -424,-113zm666 -111l24 -25c-80,-111 -32,-62 -134,-165 -56,-55 -97,-87 -175,-125 -173,-84 -287,-90 -481,-38 -45,13 -161,102 -185,125 -33,32 -107,126 -123,185 -8,8 -8,8 -17,22 -1,3 -3,6 -5,8l-40 115c-12,46 -24,117 -25,170 -3,337 263,570 558,602l41 -123 37 -84c-42,-31 -106,-44 -151,-75 -50,-34 -73,-62 -107,-121 -68,-116 -59,-263 6,-369 147,-242 491,-116 587,55 39,-18 68,-50 98,-78 15,-13 26,-27 42,-40l50 -39zm2857 81c17,26 39,47 58,71 182,-80 273,-348 148,-462 -102,-127 -373,-145 -453,187l247 204zm188 229c23,33 44,74 77,106 139,-41 276,-195 333,-327 62,-144 76,-424 -22,-540 -17,-92 -153,-224 -222,-266 -77,-47 -285,-121 -392,-67 -130,2 -278,96 -340,161 -79,84 -134,193 -169,329 32,19 1,4 37,9 23,28 146,86 184,109 68,-152 74,-200 209,-271 123,-65 280,-29 358,47 305,300 -109,613 -118,625 20,20 51,60 65,85z"/>
  <path class="fil6" d="M13214 10368c-21,112 -61,176 -188,180 -183,5 -134,-197 -242,-98 -26,59 46,138 88,166 57,36 59,6 87,57 38,69 118,332 422,288 250,-36 306,-196 342,-367 20,-95 188,-116 136,-281 -159,-41 -34,114 -202,157 -126,31 -227,-28 -263,-116 34,-30 180,-95 175,-216 -5,-171 -531,-94 -552,39 -16,106 124,152 197,191zm1238 130c-40,218 -258,391 -428,482 -203,109 -434,181 -698,204 -287,24 -576,-14 -797,-117 -171,-79 -402,-250 -355,-522 101,-587 1288,-883 1914,-581 177,85 416,250 364,534z"/>
  <path class="fil7 str2" d="M11404 10339l33 34c143,185 116,184 337,383 625,563 1641,636 2386,288 345,-161 609,-427 798,-748 133,-228 143,-315 211,-522 1,-3 3,-7 4,-10l10 -21c-4,446 -318,937 -531,1121 -268,232 -634,474 -1090,553 -673,116 -1403,-122 -1831,-571 -123,-130 -258,-292 -327,-507z"/>
  <path class="fil8 str2" d="M13899 13317c-23,6 -62,26 -163,58 -97,32 -202,52 -311,51 -69,0 -356,-43 -419,-67 -61,-29 -312,-109 -390,-200 48,28 210,72 308,91 206,40 315,85 525,83 297,-4 489,-43 732,-185 -202,172 -259,144 -282,169z"/>
  <path class="fil9" d="M11907 8464l-50 39c-16,13 -27,27 -42,40 -30,28 -59,60 -98,78 -96,-171 -440,-297 -587,-55 -65,106 -74,253 -6,369 34,59 57,87 107,121 45,31 109,44 151,75l-37 84c-73,28 -196,-45 -245,-76 -65,-42 -127,-104 -169,-166 -129,-188 -120,-299 -98,-552 16,-59 90,-153 123,-185 24,-23 140,-112 185,-125 13,7 4,5 28,9 82,12 212,-37 435,83 67,36 115,69 164,112 30,25 45,44 68,76 20,27 42,58 71,73z"/>
  <path class="fil3 str1" d="M15340 8013c20,187 2,342 -77,478 -55,94 -199,260 -311,283 -14,-25 -45,-65 -65,-85 9,-12 423,-325 118,-625 -78,-76 -235,-112 -358,-47 -135,71 -141,119 -209,271 -38,-23 -161,-81 -184,-109 66,-151 85,-208 183,-310 60,-63 193,-161 319,-183l-30 -6c107,-54 315,20 392,67 69,42 205,174 222,266z"/>
  <path class="fil5" d="M13576 10774c-158,-162 -385,-60 -429,48 47,51 140,91 233,77 48,-7 88,-30 118,-49 48,-31 64,-43 78,-76zm-405 -637c17,25 3,24 51,32 63,10 142,0 184,-51 -79,-18 -167,0 -235,19zm688 176c52,165 -116,186 -136,281 -36,171 -92,331 -342,367 -304,44 -384,-219 -422,-288 -28,-51 -30,-21 -87,-57 -42,-28 -114,-107 -88,-166 108,-99 59,103 242,98 127,-4 167,-68 188,-180 -73,-39 -213,-85 -197,-191 21,-133 547,-210 552,-39 5,121 -141,186 -175,216 36,88 137,147 263,116 168,-43 43,-198 202,-157z"/>
  <path class="fil7 str2" d="M11995 11185c69,20 203,108 293,148 720,313 1411,270 2077,-143l263 -186 -10 4 4 18c-1,32 3,20 -28,56 -121,143 -293,299 -456,395 -591,350 -1321,357 -1885,-50 -80,-58 -202,-163 -258,-242z"/>
  <path class="fil10" d="M14877 8812c-21,-8 -2,3 -21,-12 -33,-24 -194,-178 -316,-271 -115,-87 -264,-167 -408,-227 -652,-273 -1435,-190 -2019,192l-263 205c-123,118 -224,248 -324,385 -44,62 -20,33 -35,22 211,-524 979,-990 1559,-1023 760,-43 1384,130 1827,729z"/>
  <path class="fil11" d="M12623 9402c-97,-62 -113,133 -45,168 99,52 109,-127 45,-168zm-256 233c-106,-353 277,-512 382,-167 106,347 -283,498 -382,167z"/>
  <path class="fil11" d="M13764 9254c-83,-63 -110,125 -41,165 44,26 75,-6 83,-49 13,-71 -12,-93 -42,-116zm63 -138c26,9 50,21 70,35 22,16 40,35 55,56 123,173 35,495 -176,446 -115,-27 -183,-166 -178,-306 5,-131 90,-273 229,-231z"/>
  <path class="fil8 str2" d="M14691 11672c316,15 567,-55 787,-281 47,-48 84,-81 127,-136 143,-180 225,-341 216,-594 93,125 -3,342 -58,451 -112,226 -354,447 -553,598 -80,61 -266,191 -363,227 -46,-149 -124,-201 -156,-265z"/>
  <path class="fil6" d="M14970 8154c-9,199 -96,287 -206,391l-247 -204c80,-332 351,-314 453,-187z"/>
  <path class="fil6" d="M11468 8959c-91,-8 -146,-59 -181,-114 -59,-94 -45,-150 -46,-270 72,-107 288,-71 424,113l-197 271z"/>
  <path class="fil7" d="M10856 12464c25,-23 7,1 20,-35 1,-1 7,-37 8,-39 3,-16 8,-40 19,-58 13,91 119,209 264,219 349,23 752,-352 983,-530 -51,130 -916,1029 -1294,443z"/>
  <path class="fil8 str2" d="M11345 9215l-41 123c-295,-32 -561,-265 -558,-602 1,-53 13,-124 25,-170l40 -115c2,-2 4,-5 5,-8 9,-14 9,-14 17,-22 -22,253 -31,364 98,552 42,62 104,124 169,166 49,31 172,104 245,76z"/>
  <path class="fil12" d="M11925 11130c-21,34 -7,11 -30,36 -57,59 -187,153 -260,231l-531 572c-132,176 -102,142 -189,304 -2,2 -11,17 -13,18 -29,26 14,14 -16,6l-10 -79c127,-273 277,-432 445,-607 81,-85 177,-178 271,-257 62,-53 236,-215 295,-246l38 22z"/>
  <path class="fil8 str2" d="M14952 8774c112,-23 256,-189 311,-283 79,-136 97,-291 77,-478 98,116 84,396 22,540 -57,132 -194,286 -333,327 -33,-32 -54,-73 -77,-106z"/>
  <path class="fil13" d="M15730 10561c-13,4 -108,-27 -149,-31 -173,-16 -341,46 -455,161 -66,67 -387,302 -508,317l10 -4c150,-138 33,-55 229,-186 227,-151 305,-289 524,-326 130,-22 267,3 349,69z"/>
  <path class="fil14" d="M13576 10774c-14,33 -30,45 -78,76 -30,19 -70,42 -118,49 -93,14 -186,-26 -233,-77 44,-108 271,-210 429,-48z"/>
  <path class="fil15" d="M11468 8959l-45 86c-369,-102 -268,-423 -182,-470 1,120 -13,176 46,270 35,55 90,106 181,114z"/>
  <path class="fil15" d="M14764 8545c110,-104 197,-192 206,-391 125,114 34,382 -148,462 -19,-24 -41,-45 -58,-71z"/>
  <path class="fil13" d="M11907 8464c-29,-15 -51,-46 -71,-73 -23,-32 -38,-51 -68,-76 -49,-43 -97,-76 -164,-112 -223,-120 -353,-71 -435,-83 -24,-4 -15,-2 -28,-9 194,-52 308,-46 481,38 78,38 119,70 175,125 102,103 54,54 134,165l-24 25z"/>
  <path class="fil10" d="M14254 8179c-36,-5 -5,10 -37,-9 35,-136 90,-245 169,-329 62,-65 210,-159 340,-161l30 6c-126,22 -259,120 -319,183 -98,102 -117,159 -183,310z"/>
  <path class="fil2" d="M12623 9402c64,41 54,220 -45,168 -68,-35 -52,-230 45,-168z"/>
  <path class="fil2" d="M13764 9254c30,23 55,45 42,116 -8,43 -39,75 -83,49 -69,-40 -42,-228 41,-165z"/>
  <path class="fil16" d="M13171 10137c68,-19 156,-37 235,-19 -42,51 -121,61 -184,51 -48,-8 -34,-7 -51,-32z"/>
  <path class="fil18" d="M3597 11502c198,49 318,129 359,295 41,166 -23,230 -82,304 -59,75 203,-382 -277,-599z"/>
  <path class="fil18" d="M4021 12353c184,-14 310,82 348,237 38,155 -21,214 -77,284 -55,69 177,-320 -271,-521z"/>
  <path class="fil18" d="M5549 14312c171,-51 310,14 379,153 68,139 24,207 -14,284 -38,77 100,-339 -365,-437z"/>
  <path class="fil18" d="M9486 16273c83,-155 225,-208 370,-160 145,48 162,126 191,206 28,80 -170,-306 -561,-46z"/>
  <path class="fil18" d="M10456 16298c79,-150 217,-201 356,-155 140,47 157,122 184,199 27,77 -163,-294 -540,-44z"/>
  <path class="fil18" d="M13136 15802c12,-190 129,-305 293,-323 164,-17 216,53 280,119 63,67 -303,-226 -573,204z"/>
  <path class="fil18" d="M15440 14198c12,-190 129,-306 293,-323 164,-17 216,52 280,119 63,66 -303,-226 -573,204z"/>
  <path class="fil18 str5" d="M16850 12138c-3,-190 104,-315 266,-345 163,-30 220,35 288,96 69,62 -319,-201 -554,249z"/>
  <path class="fil18" d="M16850 12138c-3,-190 104,-315 266,-345 163,-30 220,35 288,96 69,62 -319,-201 -554,249z"/>
  <path class="fil18" d="M17336 10707c-2,-162 89,-268 227,-293 138,-26 187,29 245,82 58,52 -272,-172 -472,211z"/>
  <path class="fil18" d="M2568 10862c419,-128 819,-393 1010,-121 107,153 74,218 61,282 -27,-59 -95,-228 -219,-287 -225,-106 -382,41 -852,126z"/>
  <path class="fil18" d="M4192 13345c114,-145 359,-188 500,-111 141,76 171,108 247,190 76,82 -294,-275 -747,-79z"/>
  <path class="fil18" d="M6066 15038c114,-146 290,-208 431,-132 141,76 169,88 262,165 93,76 -240,-230 -693,-33z"/>
  <path class="fil18" d="M8038 16045c61,-165 255,-289 406,-235 151,54 145,28 250,63 105,35 -239,-92 -656,172z"/>
  <path class="fil18" d="M11288 16372c14,-176 124,-311 267,-336 144,-24 208,-37 306,-57 98,-21 -243,26 -573,393z"/>
  <path class="fil18" d="M14336 15428c-134,-137 -114,-393 35,-496 150,-102 388,-282 408,-301 20,-19 -656,458 -443,797z"/>
  <path class="fil18" d="M15396 14630c-96,-166 -320,-203 -455,-112 -135,91 -377,265 -373,282 4,16 397,-418 828,-170z"/>
  <path class="fil18" d="M16933 12682c-150,-119 -381,-73 -463,65 -83,137 -125,228 -142,250 -16,21 116,-253 605,-315z"/>
  <path class="fil19" d="M3343 10857c276,48 64,699 -221,650 -160,-27 -154,-244 -109,-375 55,-161 185,-300 330,-275z"/>
  <path class="fil19" d="M3329 12894c122,20 28,309 -98,287 -71,-12 -68,-108 -48,-166 24,-71 82,-132 146,-121z"/>
  <path class="fil19" d="M3730 11827c122,21 28,309 -98,287 -70,-12 -68,-108 -48,-166 25,-71 82,-132 146,-121z"/>
  <path class="fil19" d="M5731 14499c49,113 -244,191 -294,74 -28,-66 53,-116 113,-131 73,-18 155,-3 181,57z"/>
  <path class="fil19" d="M8833 16138c130,248 -517,474 -650,218 -76,-144 100,-271 231,-314 162,-54 351,-35 419,96z"/>
  <path class="fil19" d="M9716 16306c122,21 28,309 -98,287 -71,-12 -68,-108 -48,-165 24,-72 82,-133 146,-122z"/>
  <path class="fil19" d="M10869 17158c122,21 28,309 -97,288 -71,-13 -69,-109 -49,-166 25,-72 82,-133 146,-122z"/>
  <path class="fil19" d="M13457 15681c177,30 40,448 -142,417 -103,-18 -99,-157 -70,-241 35,-103 118,-192 212,-176z"/>
  <path class="fil19" d="M16951 13349c187,207 -382,589 -576,375 -108,-121 30,-288 146,-363 143,-92 331,-122 430,-12z"/>
  <path class="fil19" d="M17508 13372c122,21 28,309 -98,288 -71,-13 -68,-109 -48,-166 24,-72 82,-133 146,-122z"/>
  <path class="fil19" d="M17787 10594c126,114 -195,379 -325,261 -73,-66 0,-175 66,-228 81,-64 192,-93 259,-33z"/>
  <path class="fil6 str6" d="M17957 5092c95,-6 222,40 295,71 176,73 306,236 363,416 97,302 -14,652 -155,903 -74,131 -151,218 -246,332l-97 98 -14 12 -204 163c-147,107 -336,200 -516,252 -127,37 -209,37 -343,52 -248,-13 -478,-77 -624,-288 -107,-153 -121,-260 -138,-462 29,-52 -35,-346 328,-843l92 -110c109,-143 398,-347 580,-444 185,-98 435,-164 679,-152z"/>
  <path class="fil20 str6" d="M15801 5540l13 -140c-165,-2 -532,111 -486,269 128,38 357,-80 473,-129zm1090 -1010c24,-23 288,-517 116,-468 -138,39 -233,297 -252,466l136 2zm1066 562c-244,-12 -494,54 -679,152 -182,97 -471,301 -580,444l-92 110c-363,497 -299,791 -328,843l-123 -225c-107,-174 -322,-540 -338,-729 -33,26 -93,95 -175,160 -59,47 -136,102 -212,129 -110,40 -185,36 -269,-10 -32,-18 -62,-53 -84,-83 -26,-36 -46,-73 -60,-120 -104,-344 514,-486 847,-514 4,-22 11,-36 19,-54 -47,-20 -78,-34 -119,-59 -60,-35 -165,-112 -208,-160l-87 -104c20,-27 51,-53 76,-72l8 6c85,83 35,55 175,156 42,30 183,107 242,104 6,-29 25,-42 43,-63 18,-21 30,-36 48,-57 74,-88 265,-262 354,-290 -15,-45 -21,-84 -38,-130 -26,-69 -79,-163 -124,-219 -27,-34 -52,-57 -78,-87 15,-20 59,-65 83,-75 62,77 69,57 167,192 46,64 94,163 121,247 24,-8 32,-16 59,-20 -3,-46 46,-222 61,-271 57,-193 213,-619 482,-539 185,55 304,209 217,422 -45,112 -252,347 -328,374 9,5 1,2 15,7 6,2 11,4 16,6 11,3 22,6 34,10 295,99 490,285 742,442 19,11 35,21 54,35l54 38c1,1 3,3 5,4z"/>
  <path class="fil20 str6" d="M18777 9677c-30,124 -1277,168 -1248,-210 29,-377 -81,-1431 -489,-2076 164,2 449,-56 606,-138 153,-80 405,-214 457,-329l14 -12c402,254 755,2365 660,2765z"/>
  <path class="fil21 str7" d="M16258 4145c-24,10 -68,55 -83,75 -46,5 -37,15 -86,8 -33,-4 -46,-10 -68,-27 -134,-107 -106,-317 10,-410 -16,109 187,116 239,224 28,58 -5,82 -12,130z"/>
  <path class="fil21 str7" d="M15545 4800c-25,19 -56,45 -76,72 -50,15 -73,28 -122,11 -113,-38 -83,-245 -212,-264 19,-32 90,-59 132,-71 124,-35 287,32 295,172 3,42 -7,50 -17,80z"/>
  <path class="fil21 str7" d="M15801 5540c-116,49 -345,167 -473,129 -46,-158 321,-271 486,-269l-13 140z"/>
  <path class="fil21 str7" d="M16891 4530l-136 -2c19,-169 114,-427 252,-466 172,-49 -92,445 -116,468z"/>
  <path class="fil22 str8" d="M17315 6828c-70,-63 11,-169 45,-138 17,34 -16,23 -30,56 225,4 404,-147 545,-278 23,-21 38,-47 60,-70 14,-15 22,-30 29,-36 34,-32 82,4 -86,158 -168,153 -287,239 -546,267 22,33 55,17 41,51 -15,20 -42,5 -58,-10z"/>
  <path class="fil22 str8" d="M16958 4920c83,16 80,73 42,58 -11,-4 -13,-15 -36,-21 -65,-17 -122,47 -89,110 44,85 -66,37 -44,-64 11,-49 63,-96 127,-83z"/>
  <path class="fil22 str8" d="M17846 5692c-20,-24 13,-61 39,-66 36,-8 68,14 73,47 4,25 -12,38 -21,20 -10,-20 -1,-30 -23,-40 -14,-7 -34,-2 -42,8 -13,15 0,32 -26,31z"/>
  <path class="fil22 str8" d="M16891 6598c-5,16 -65,6 -56,59 8,50 55,15 53,57 -38,21 -88,-23 -82,-74 6,-50 80,-84 85,-42z"/>
  <path class="fil22 str8" d="M16391 5393c84,16 81,72 43,58 -11,-4 -14,-15 -37,-21 -64,-17 -121,47 -88,110 44,85 -67,37 -44,-64 11,-49 62,-96 126,-83z"/>
  <path class="fil23" d="M16894 3882c0,0 135,-176 336,-59 202,118 125,254 128,263 3,8 -112,-341 -464,-204z"/>
  <path class="fil24" d="M17006 4218c0,0 66,-157 -6,-116 -72,40 -112,117 -112,117 0,0 138,-149 118,-1z"/>
  <path class="fil25" d="M16233 4099c0,0 53,-67 -54,-129 -107,-63 -145,-60 -165,-114 -38,54 -53,108 -51,140 16,-46 243,-47 270,103z"/>
  <path class="fil25" d="M15429 4842c0,0 -68,51 -128,-57 -60,-108 -55,-147 -109,-168 54,-37 109,-51 141,-47 -47,14 -54,242 96,272z"/>
  <path class="fil23 str9" d="M17842 5055c0,0 -246,-176 -347,-239 -100,-63 -291,-190 -439,-219 119,71 440,264 546,328 97,59 248,132 240,130z"/>
  <path class="fil26" d="M16253 4189l-36 33c0,0 229,203 256,268 27,65 -135,-291 -220,-301z"/>
  <path class="fil26" d="M15550 4844c0,0 171,186 353,246 -103,-7 -270,-68 -390,-217 13,-25 37,-29 37,-29z"/>
  <path class="fil23" d="M16458 4678c-30,-4 -238,99 -456,402 168,-118 408,-324 456,-402z"/>
  <path class="fil23" d="M15698 5310c0,0 -406,69 -543,193 -137,123 -106,158 -111,175 -5,18 128,-189 654,-368z"/>
  <path class="fil26" d="M15667 5778c0,0 -302,300 -496,150 230,-27 304,-31 496,-150z"/>
  <path class="fil26" d="M16265 6558c0,0 -245,-446 -280,-523 -34,-77 239,297 309,328 -9,51 -25,111 -29,195z"/>
  <path class="fil18" d="M18496 5404c0,0 -253,-389 -855,-248 -602,142 -1019,622 -1107,815 -87,194 966,-1317 1962,-567z"/>
  <path class="fil26" d="M18114 6969c-16,-12 -341,431 -1026,451 227,27 775,119 1026,-451z"/>
  <path class="fil19" d="M18051 7273c-119,33 57,337 180,303 105,-46 49,-131 23,-186 -31,-68 -140,-135 -203,-117z"/>
  <path class="fil19" d="M17293 7555c-20,82 220,79 241,-6 7,-78 -62,-73 -104,-76 -91,4 -127,39 -137,82z"/>
  <path class="fil19" d="M18575 9257c132,107 -174,389 -310,279 -77,-62 -9,-176 53,-232 78,-69 188,-104 257,-47z"/>
  <path class="fil19" d="M17832 9152c122,14 44,307 -83,292 -71,-8 -74,-104 -57,-163 21,-72 75,-137 140,-129z"/>
  <path class="fil19" d="M18001 8180c278,32 101,694 -186,661 -161,-19 -167,-236 -129,-369 46,-164 168,-309 315,-292z"/>
  <path class="fil19" d="M17432 7730c-119,33 57,337 180,303 105,-46 49,-131 23,-186 -31,-69 -140,-135 -203,-117z"/>
  <path class="fil21 str7" d="M2596 8317c27,15 61,38 84,63 51,9 75,19 123,-4 107,-50 54,-252 180,-286 -22,-29 -96,-49 -139,-56 -127,-20 -281,65 -274,205 3,42 13,49 26,78z"/>
  <path class="fil27 str7" d="M2384 10300c-155,113 1109,-191 733,-217 -376,-25 -888,-465 -530,-1496 29,-83 163,-526 -142,59 -447,1078 94,1541 -61,1654z"/>
  <path class="fil25" d="M2736 8352c0,0 75,42 120,-73 46,-115 37,-152 88,-180 -58,-30 -115,-37 -146,-30 48,9 83,234 -62,283z"/>
  <path class="fil23" d="M3104 10115c0,0 -351,-41 -520,-314 -170,-273 -171,-628 -140,-774 -140,511 59,906 280,1032 220,126 260,63 380,56z"/>
  <path class="fil23 str10" d="M6750 11436c0,0 -572,1047 178,1286 750,238 1058,-53 1155,-168 97,-115 174,-621 -14,-941 -409,57 -603,121 -1319,-177z"/>
  <path class="fil23 str10" d="M14078 11515c0,0 573,1048 -177,1286 -750,238 -1058,-53 -1155,-168 -97,-114 -174,-621 14,-941 408,58 603,121 1318,-177z"/>
  <path class="fil19" d="M4550 14159c219,38 50,556 -176,517 -127,-22 -122,-195 -87,-298 44,-128 147,-239 263,-219z"/>
  <path class="fil19" d="M5889 15591c224,-63 298,502 67,567 -129,37 -203,-128 -216,-242 -16,-141 31,-291 149,-325z"/>
  <path class="fil19" d="M6982 15347c122,21 28,309 -98,288 -71,-13 -68,-109 -48,-166 24,-72 81,-133 146,-122z"/>
  <path class="fil19" d="M11916 17011c177,31 41,449 -142,418 -102,-18 -99,-157 -70,-241 36,-104 119,-193 212,-177z"/>
  <path class="fil19" d="M11546 16316c122,20 28,309 -98,287 -70,-12 -68,-108 -48,-166 24,-71 82,-132 146,-121z"/>
  <path class="fil19" d="M14877 14865c221,108 -120,605 -347,493 -128,-63 -70,-244 0,-343 87,-122 231,-207 347,-150z"/>
  <path class="fil19" d="M16528 14640c122,21 28,309 -98,287 -71,-12 -68,-108 -48,-166 24,-71 81,-132 146,-121z"/>
  <path class="fil19" d="M18127 12466c57,216 -485,276 -543,54 -32,-124 126,-192 235,-202 135,-13 278,35 308,148z"/>
  <path class="fil19" d="M18505 11353c121,21 27,309 -98,287 -71,-12 -69,-108 -49,-166 25,-71 82,-132 147,-121z"/>
  <path class="fil19" d="M4303 13382c122,21 28,309 -98,288 -71,-12 -68,-108 -48,-166 24,-71 81,-133 146,-122z"/>
  <path class="fil19" d="M2458 9972c82,-93 277,139 192,234 -47,54 -128,1 -166,-46 -48,-59 -70,-140 -26,-188z"/>
  <path class="fil19" d="M8009 16838c103,-68 231,207 125,277 -60,39 -124,-33 -149,-89 -31,-68 -31,-152 24,-188z"/>
 </g>
</svg>
