<?xml version="1.0" encoding="UTF-8"?>
<!DOCTYPE svg PUBLIC "-//W3C//DTD SVG 1.1//EN" "http://www.w3.org/Graphics/SVG/1.1/DTD/svg11.dtd">
<!-- Creator: CorelDRAW 2020 (64-Bit) -->
<svg xmlns="http://www.w3.org/2000/svg" xml:space="preserve" width="173.397mm" height="173.397mm" version="1.1" style="shape-rendering:geometricPrecision; text-rendering:geometricPrecision; image-rendering:optimizeQuality; fill-rule:evenodd; clip-rule:evenodd"
viewBox="0 0 17325.47 17325.47"
 xmlns:xlink="http://www.w3.org/1999/xlink"
 xmlns:xodm="http://www.corel.com/coreldraw/odm/2003">
 <defs>
  <style type="text/css">
   <![CDATA[
    .fil0 {fill:none}
    .fil1 {fill:#AD795B}
    .fil6 {fill:#522A2A;fill-rule:nonzero}
    .fil3 {fill:#AD795B;fill-rule:nonzero}
    .fil2 {fill:#DBA88B;fill-rule:nonzero}
    .fil4 {fill:#EDD8BA;fill-rule:nonzero}
    .fil5 {fill:#FFFAEB;fill-rule:nonzero}
   ]]>
  </style>
 </defs>
 <g id="Warstwa_x0020_1">
  <metadata id="CorelCorpID_0Corel-Layer"/>
  <rect class="fil0" x="-0" y="-0" width="17325.48" height="17325.48"/>
  <path class="fil1" d="M11908.92 3498.39c-834.33,-1660.28 -6085.84,-2838.94 -8156.77,2111.8 -1370.63,3276.65 231.46,2952.47 1679.34,5746.82 984.91,1900.85 6890.83,2628.33 8226.38,-1970.14 952.05,-3278.05 -789.68,-3979.59 -1748.95,-5888.49z"/>
  <path class="fil2" d="M3311.32 6730.64c678.75,-1680.13 2165.29,-2415.31 3461.95,-2534.97 1562.84,-144.22 3217.6,519.17 3707.92,3432.33 228.55,1358.02 457.02,3242.42 564.49,4996 -739.59,351.72 -1566.95,548.8 -2440.43,548.8 -3226.03,0 -6618.46,-3163.49 -5293.93,-6442.16z"/>
  <path class="fil3" d="M7405.24 9532.36c-1.04,93.64 -21.05,178.87 -60.39,263.38 -19.48,41.72 -79.44,5.13 -60.01,-36.38 33.94,-73 49.98,-146.16 50.86,-227 0.53,-46.47 70.06,-46.66 69.54,0zm-1235.07 -5051.8c1.03,93.65 21.05,178.88 60.38,263.39 19.49,41.72 79.44,5.13 60.01,-36.39 -33.94,-72.99 -49.97,-146.15 -50.86,-227 -0.52,-46.46 -70.06,-46.65 -69.53,0zm-13.57 4312.56c1.03,93.65 21.04,178.88 60.38,263.39 19.49,41.71 79.44,5.13 60.01,-36.39 -33.94,-72.99 -49.97,-146.16 -50.86,-227 -0.52,-46.46 -70.06,-46.66 -69.53,0zm2378.35 -1735.18c-1.03,93.65 -21.05,178.88 -60.39,263.39 -19.48,41.71 -79.43,5.13 -60,-36.39 33.94,-72.99 49.97,-146.16 50.85,-227 0.53,-46.46 70.07,-46.66 69.54,0zm-4312.58 -319.47c0,134.62 0,269.26 0,403.88 0,46.47 69.53,46.47 69.53,0 0,-134.62 0,-269.26 0,-403.88 0,-46.46 -69.53,-46.46 -69.53,0zm825.26 -796.89c-66.12,89.01 -99.76,194.61 -102.11,306.64 -1,46.48 68.54,46.48 69.52,0 2.12,-100.38 33.69,-190.88 92.59,-270.23 27.37,-36.86 -33.09,-72.68 -60.01,-36.41zm-1228.55 2152.68c0.02,32.74 4.78,60.56 18.66,90.19 8.25,17.76 32.17,22.31 47.55,13 17.29,-10.43 20.74,-31.65 12.48,-49.39 -9.49,-20.31 -9.14,-30.91 -9.15,-53.8 -0.02,-46.64 -69.58,-46.64 -69.54,0zm696.59 355.6c12.38,37.88 28.04,73.91 45.21,109.58 20.05,41.71 80.01,5.13 60.03,-36.41 -14.53,-30.17 -27.74,-60.36 -38.23,-92.36 -14.34,-43.71 -81.49,-24.89 -67.01,19.19zm-1052.28 1509.65c-4.8,23.15 -10.03,46.17 -15.6,69.07 15.3,31.92 30.93,63.73 46.96,95.36 13.16,-48.1 25.56,-96.4 35.69,-145.42 9.38,-45.37 -57.66,-64.57 -67.05,-19.01zm313.99 105.73c0,96.03 0,192.23 0,288.26 0,46.65 69.52,46.65 69.52,0 0,-96.03 0,-192.23 0,-288.26 0,-46.66 -69.52,-46.66 -69.52,0zm3042.13 -5336.09c-16.9,111.86 -19.73,223.46 -19.77,336.48 -0.02,46.48 69.52,46.48 69.54,0 0.03,-106.38 1.37,-212.02 17.29,-317.33 6.89,-45.45 -60.1,-64.98 -67.05,-19.15zm-1316.47 442.28c-16.77,73.14 -19.77,146.21 -19.79,221.1 -0.02,46.5 69.52,46.5 69.53,0 0.04,-68.49 1.98,-135 17.3,-201.96 10.35,-45.17 -56.7,-64.36 -67.03,-19.13zm963.06 236.89c26.26,41.51 48.12,85.46 69.52,129.78 20.05,41.61 80.04,5.07 60.03,-36.39 -21.41,-44.34 -43.26,-88.27 -69.54,-129.78 -24.49,-38.71 -84.72,-2.58 -60.01,36.39zm1264.06 -708.17c67.03,36.76 111.22,102.08 159.84,160.21 29.4,35.22 78.38,-16.02 49.15,-50.98 -52.7,-63.08 -101.15,-131.64 -173.91,-171.48 -39.62,-21.67 -74.74,40.54 -35.08,62.25zm853.19 771.67c6.94,21.63 13.89,43.26 20.84,64.9 5.99,18.61 23.74,30.6 42.76,25.19 17.54,-5.02 30.3,-25.69 24.28,-44.34 -6.95,-21.61 -13.91,-43.27 -20.86,-64.91 -5.98,-18.66 -23.76,-30.57 -42.75,-25.16 -17.54,5.01 -30.28,25.69 -24.27,44.32zm723.13 1218.55c15.04,37.87 34.34,73.19 52.18,109.58 20.29,41.53 80.26,4.93 60.04,-36.39 -15.03,-30.73 -32.49,-60.38 -45.18,-92.21 -7.19,-18.27 -22.77,-30.9 -42.73,-25.24 -16.62,4.76 -31.53,26.16 -24.3,44.26zm-1788.24 -954.13c0.55,54.6 8.12,108.42 22.12,161.01 11.88,44.77 78.96,25.75 67.01,-19.13 -12.4,-46.7 -19.12,-93.42 -19.59,-141.87 -0.47,-46.46 -69.99,-46.54 -69.54,0zm1534.48 2066.11c53.57,93.82 83.67,199.02 132.11,295.59 20.69,41.34 80.68,4.76 60.02,-36.39 -48.43,-96.59 -78.5,-201.58 -132.1,-295.61 -22.79,-40.06 -82.92,-3.67 -60.03,36.41zm495.88 371.13c0,9.7 0,19.21 0,28.9 0,46.47 69.54,46.47 69.54,0 0,-9.68 0,-19.19 0,-28.9 0,-46.47 -69.54,-46.47 -69.54,0zm-611.9 1290.86c-14.28,134.09 -24.11,265.59 1.26,398.94 8.65,45.55 75.67,26.16 67.04,-19.19 -24.08,-126.59 -12.29,-252.79 1.24,-379.75 4.91,-46.27 -64.68,-45.72 -69.54,0zm-986.12 307.68c-15.04,49.76 -15.14,102.07 -15.16,153.65 -0.01,46.64 69.52,46.64 69.54,0 0.02,-45.54 -0.58,-90.73 12.67,-134.64 13.42,-44.43 -53.72,-63.28 -67.05,-19.01zm1778.8 1408.48c3.11,138.29 42.85,268.52 84.69,398.94 9.58,29.81 46.95,35.48 63.54,8.6 14.76,-23.98 18.2,-47.75 18.64,-75.92 0.77,-46.46 -68.74,-46.46 -69.51,0 1.09,13.9 -1.98,27.07 -9.15,39.51 21.16,2.92 42.36,5.68 63.52,8.59 -39.79,-124.02 -79.23,-247.86 -82.2,-379.73 -1.03,-46.46 -70.55,-46.66 -69.52,0zm83.43 -1528.66c1.2,44.08 22.8,80.84 51.91,111.95 31.31,33.29 80.44,-17.76 49.19,-51.04 -15.94,-17.02 -30.9,-36.76 -31.54,-60.91 -1.26,-46.46 -70.79,-46.64 -69.55,0zm-1724.4 1802.68c1.04,93.65 21.05,178.88 60.39,263.39 19.49,41.71 79.44,5.13 60.01,-36.39 -33.94,-72.99 -49.98,-146.16 -50.86,-227 -0.53,-46.46 -70.06,-46.66 -69.54,0zm-1236.44 -408.65c14.12,87.63 29.33,174.7 55.63,259.58 13.64,44.08 80.81,25.24 67.03,-19.22 -26.31,-84.86 -41.5,-171.94 -55.62,-259.55 -7.37,-45.73 -74.37,-26.36 -67.04,19.19zm2845.9 1660c4.93,5.11 9.81,10.23 14.47,15.73 1.79,2.01 3.58,7.13 3.14,2.01 1.66,19.57 14.57,36.02 34.77,36.02 17.69,0 36.42,-16.45 34.77,-36.02 -2.46,-29.27 -18.75,-48.84 -38.02,-68.77 -31.67,-32.92 -80.83,17.93 -49.13,51.04zm-1915.4 363.81c-0.13,20.25 -0.5,40.48 -0.86,60.67 23.1,3.06 46.17,6.1 69.27,8.83 0.47,-23.12 0.98,-46.29 1.13,-69.5 0.28,-46.45 -69.25,-46.45 -69.54,0zm-152.96 -2264.17c0,62.56 0,124.93 0,187.5 0,46.46 69.52,46.46 69.52,0 0,-62.57 0,-124.94 0,-187.5 0,-46.47 -69.52,-46.47 -69.52,0zm-1709.26 -730.77c-12.54,90.75 -3.65,178.53 27.82,264.32 15.75,43.17 83.01,24.52 67.01,-19.02 -26.63,-72.79 -38.49,-148.53 -27.8,-226.08 6.28,-45.37 -60.7,-64.94 -67.03,-19.21zm-639.69 -615.33c11.56,55.98 -1,113.77 -13.91,168.28 -10.69,45.18 56.34,64.4 67.03,19.21 16.08,-67.86 28.22,-137.19 13.89,-206.71 -9.35,-45.35 -76.38,-26.16 -67.01,19.21zm-1878.64 -2504.54c0,38.42 0,77.01 0,115.43 0,46.46 69.51,46.46 69.51,0 0,-38.42 0,-77.01 0,-115.43 0,-46.44 -69.51,-46.44 -69.51,0zm-262.99 1769.02c16.7,82.33 41.41,162.44 55.63,245.12 7.85,45.72 74.84,26.35 67.03,-19.02 -14.21,-82.85 -38.92,-162.98 -55.62,-245.29 -9.23,-45.37 -76.25,-26.16 -67.04,19.19zm1890.05 2701.73c0,96.2 0,192.25 0,288.45 0,46.47 69.54,46.47 69.54,0 0,-96.2 0,-192.25 0,-288.45 0,-46.46 -69.54,-46.46 -69.54,0zm1390.66 1096.06c1.92,80.47 29.02,155.1 74.29,220.05 26,37.32 86.36,1.46 60.03,-36.41 -38.19,-54.7 -63.15,-115.43 -64.77,-183.64 -1.13,-46.46 -70.66,-46.46 -69.55,0zm2462.72 -1057.64c17.14,50.3 44.72,94.37 73.03,138.46 24.72,38.42 84.99,2.38 60.03,-36.39 -24.7,-38.41 -51.07,-77.38 -66.03,-121.29 -14.85,-43.53 -82.03,-24.69 -67.03,19.22zm-246.81 -2991.1c53.19,120.18 51.87,256.45 64.77,385.59 4.57,45.73 74.16,46.27 69.53,0 -14.28,-143.05 -15.41,-289.02 -74.27,-422 -18.7,-42.26 -78.62,-5.48 -60.03,36.41zm1608.4 674.06c0.02,45.72 0.19,91.27 18.64,133.53 7.82,17.93 32.51,22.13 47.57,13 17.61,-10.62 20.29,-31.48 12.48,-49.39 -12.63,-28.91 -9.13,-66.24 -9.15,-97.14 -0.04,-46.47 -69.58,-46.47 -69.54,0zm-229.45 -1723.47c44.84,0 44.84,-72.07 0,-72.07 -44.86,0 -44.86,72.07 0,72.07zm-1133.38 -757.1c0,9.68 0,19.19 0,28.91 0,46.46 69.53,46.46 69.53,0 0,-9.71 0,-19.22 0,-28.91 0,-46.46 -69.53,-46.46 -69.53,0zm-2085.99 -533.57c0,86.54 0,173.04 0,259.56 0,46.46 69.53,46.46 69.53,0 0,-86.52 0,-173.02 0,-259.56 0,-46.5 -69.53,-46.5 -69.53,0zm-1335.02 1398.96c-0.89,143.78 -11.37,288.1 29.06,427.68 12.83,44.43 79.96,25.61 67.03,-19.02 -38.59,-133.35 -27.42,-271.47 -26.58,-408.65 0.3,-46.64 -69.25,-46.46 -69.51,0zm-890.04 173.04c0,72.07 0,144.14 0,216.22 0,46.64 69.54,46.64 69.54,0 0,-72.08 0,-144.15 0,-216.22 0,-46.47 -69.54,-46.47 -69.54,0zm-361.57 -1946.95c-1.64,78.32 -26.67,149.2 -54.38,221.14 -16.66,43.22 50.63,61.84 67.03,19.19 30.14,-78.22 55.08,-155.35 56.87,-240.33 1,-46.54 -68.54,-46.44 -69.53,0zm-1029.07 1961.41c0.81,43.34 14.08,80.67 32.57,119.08 20.01,41.52 79.96,5.11 60,-36.4 -12.85,-26.71 -22.47,-52.51 -23.04,-82.68 -0.88,-46.46 -70.42,-46.64 -69.53,0zm863.46 1480.54c25.44,81.04 44.06,164.09 69.53,245.13 13.82,44.06 80.94,25.24 67.02,-19.21 -25.45,-81.04 -44.05,-164.1 -69.54,-245.12 -13.8,-44.08 -80.94,-25.06 -67.01,19.2z"/>
  <path class="fil2" d="M4392.34 5585.28c0,0 60.14,-997.11 -395.23,-821.12 -455.39,176.09 -349.06,530.79 -133.02,662.07 215.99,131.28 528.26,159.06 528.26,159.06z"/>
  <path class="fil3" d="M4345.86 5556.91c0,0 34.09,-565.32 -224.03,-465.53 -258.15,99.78 -197.9,300.93 -75.43,375.31 122.46,74.39 299.45,90.22 299.45,90.22z"/>
  <path class="fil2" d="M9240.47 5390.51c0,0 -60.15,-997.13 395.22,-821.1 455.39,176.06 349.07,530.77 133.02,662.01 -216,131.31 -528.25,159.1 -528.25,159.1z"/>
  <path class="fil3" d="M9286.95 5362.1c0,0 -34.1,-565.26 224.02,-465.48 258.16,99.75 197.9,300.9 75.44,375.3 -122.47,74.43 -299.45,90.18 -299.45,90.18z"/>
  <path class="fil4" d="M8923.94 13163.76c346.01,-6608.43 876.03,-9680.09 2426.49,-10131.16 2303.41,-670.12 3076.11,2881.74 2944.27,4459.57 -4.69,3031.22 -2379.73,5506.4 -5370.76,5671.59z"/>
  <path class="fil4" d="M13105.84 3504.98c0,0 -57.45,-951.81 377.29,-783.76 434.64,168.02 333.17,506.63 126.94,631.9 -206.16,125.32 -504.23,151.86 -504.23,151.86z"/>
  <path class="fil2" d="M13150.17 3477.87c0,0 -32.5,-539.58 213.86,-444.3 246.42,95.23 188.91,287.21 72.03,358.21 -116.9,71.05 -285.89,86.1 -285.89,86.1z"/>
  <path class="fil4" d="M10851.05 3504.98c0,0 57.46,-951.81 -377.25,-783.76 -434.68,168.02 -333.21,506.63 -127,631.9 206.18,125.32 504.25,151.86 504.25,151.86z"/>
  <path class="fil2" d="M10806.69 3477.87c0,0 32.56,-539.58 -213.82,-444.3 -246.45,95.23 -188.91,287.21 -72.06,358.21 116.96,71.05 285.88,86.1 285.88,86.1z"/>
  <path class="fil5" d="M9814.25 12029.36c-102.7,133.39 -154.99,291.59 -158.62,459.44 -1.52,69.72 106.51,69.56 108.04,0 3.29,-150.33 52.33,-286.01 143.89,-404.93 42.53,-55.23 -51.44,-108.95 -93.31,-54.52zm1017.62 -1594.89c62.33,156.37 69.38,322.85 26.98,485.28 -17.59,67.47 -121.47,37.82 -103.92,-29.53 37.93,-145.49 27.85,-289.43 -27.72,-428.85 -25.81,-64.75 79.26,-90.73 104.66,-26.91zm-87.88 -2418.3c0.01,49.14 7.38,90.83 28.96,135.3 12.83,26.53 50.03,33.43 73.93,19.41 26.84,-15.73 32.23,-47.42 19.37,-73.93 -14.74,-30.45 -14.23,-46.5 -14.23,-80.78 -0.06,-69.67 -108.09,-69.67 -108.03,0zm-908.76 -207.75c0,201.64 0,403.41 0,605.12 0,69.65 108.1,69.65 108.1,0 0,-201.71 0,-403.48 0,-605.12 0,-69.67 -108.1,-69.67 -108.1,0zm598.77 -1242.58c-102.7,133.39 -154.99,291.59 -158.62,459.44 -1.52,69.71 106.52,69.56 108.04,0 3.29,-150.33 52.33,-286.02 143.89,-404.93 42.54,-55.24 -51.43,-108.96 -93.31,-54.52zm-81.45 3351.78c0.02,49.13 7.38,90.83 28.97,135.3 12.82,26.53 50.03,33.42 73.92,19.41 26.84,-15.73 32.24,-47.42 19.37,-73.93 -14.73,-30.46 -14.23,-46.5 -14.23,-80.78 -0.05,-69.68 -108.09,-69.68 -108.03,0zm-745.19 406.98c19.23,56.46 43.59,110.72 70.28,164.18 31.16,62.21 124.35,7.66 93.29,-54.56 -22.61,-45.21 -43.11,-90.46 -59.38,-138.42 -22.3,-65.51 -126.71,-37.56 -104.19,28.79zm3915.17 -5575.64c-26.28,167.63 -30.66,334.85 -30.73,504.22 0,69.69 108.09,69.69 108.09,0 0.04,-159.38 2.14,-317.66 26.9,-475.49 10.66,-68.12 -93.44,-97.37 -104.25,-28.73zm-2366.37 -875.82c-26.03,109.63 -30.66,219.07 -30.77,331.34 0,69.69 108.07,69.69 108.07,0 0.1,-102.62 3.08,-202.29 26.88,-302.59 16.08,-67.78 -88.12,-96.49 -104.17,-28.75zm977.79 537.25c1.09,40.35 11.6,77.48 28.97,113.67 12.74,26.55 50.09,33.35 73.94,19.37 26.92,-15.77 32.08,-47.34 19.33,-73.87 -8.2,-17.15 -13.68,-38.67 -14.21,-59.17 -1.89,-69.54 -109.92,-69.75 -108.03,0zm504.41 -531.63c40.86,62.19 74.79,128.04 108.08,194.51 31.18,62.29 124.35,7.58 93.23,-54.54 -33.22,-66.46 -67.17,-132.3 -108.03,-194.49 -38.03,-57.96 -131.62,-3.9 -93.28,54.52zm-814.34 6944.45c10.78,32.6 21.61,64.96 32.41,97.3 9.25,27.97 36.95,46.05 66.45,37.83 27.25,-7.41 47.02,-38.38 37.71,-66.33 -10.8,-32.63 -21.59,-64.99 -32.43,-97.32 -9.25,-27.97 -36.91,-46.05 -66.45,-37.83 -27.26,7.68 -46.99,38.65 -37.69,66.35zm1305.97 -2389.64c23.35,56.75 53.37,109.53 81.06,164.22 31.51,62.11 124.76,7.38 93.25,-54.58 -23.27,-46.01 -50.46,-90.58 -70.1,-138.35 -11.24,-27.25 -35.47,-46.24 -66.45,-37.73 -25.86,7.07 -49.03,39.2 -37.77,66.43zm500.51 -436.02c0.86,81.74 12.61,162.42 34.4,241.31 18.43,67.06 122.67,38.51 104.13,-28.79 -19.29,-69.99 -29.76,-139.92 -30.47,-212.53 -0.75,-69.61 -108.78,-69.73 -108.06,0zm-894.89 2102.19c83.24,140.71 130.09,298.33 205.31,443.05 32.14,61.69 125.4,7.15 93.28,-54.54 -75.22,-144.73 -121.95,-302.35 -205.27,-443.07 -35.4,-59.88 -128.87,-5.54 -93.32,54.56zm-1939.55 1737.65c17.91,83.89 -1.62,170.23 -21.65,252.18 -16.63,67.71 87.55,96.5 104.17,28.79 24.93,-101.7 43.83,-205.85 21.59,-309.74 -14.58,-68.25 -118.75,-39.22 -104.11,28.77zm2821.14 -5438.83c0,129.71 0,259.38 0,389.01 0,69.68 108.05,69.68 108.05,0 0,-129.63 0,-259.3 0,-389.01 0,-69.67 -108.05,-69.67 -108.05,0zm-2542.2 2550.13c-1.34,215.58 -17.66,431.8 45.2,641.09 19.89,66.53 124.25,38.18 104.15,-28.73 -59.95,-199.74 -42.56,-406.71 -41.29,-612.37 0.41,-69.73 -107.6,-69.66 -108.07,0zm-1383.11 259.34c0,108.05 0,216.11 0,324.12 0,69.7 108.08,69.7 108.08,0 0,-108.01 0,-216.07 0,-324.12 0,-69.67 -108.08,-69.67 -108.08,0zm559.83 -3614.89c-2.6,117.37 -41.48,223.6 -84.49,331.4 -25.89,64.77 78.66,92.65 104.13,28.75 46.83,-117.15 85.62,-232.75 88.41,-360.14 1.54,-69.71 -106.51,-69.59 -108.05,0zm-1170.87 5747.01c39.53,121.44 68.47,246.16 108.06,367.6 21.43,65.79 125.81,37.54 104.13,-28.79 -39.53,-121.44 -68.47,-245.87 -108.04,-367.31 -21.45,-66.06 -125.83,-37.81 -104.15,28.5zm2341.85 -2759.75c0.86,81.74 12.62,162.41 34.4,241.31 18.44,67.06 122.68,38.51 104.14,-28.79 -19.3,-69.99 -29.77,-139.92 -30.48,-212.53 -0.74,-69.62 -108.78,-69.73 -108.06,0zm1242.24 295.03c-0.86,81.74 -12.61,162.41 -34.4,241.3 -18.43,67.06 -122.67,38.52 -104.13,-28.79 19.29,-69.98 29.77,-139.91 30.48,-212.52 0.74,-69.62 108.77,-69.74 108.05,0zm189.56 -2557.37c102.7,106.69 154.98,233.22 158.61,367.47 1.52,55.74 -106.51,55.63 -108.03,0 -3.3,-120.23 -52.34,-228.75 -143.9,-323.86 -42.53,-44.18 51.44,-87.14 93.32,-43.6zm-584.79 1735.92c102.7,112.23 154.98,245.33 158.61,386.53 1.52,58.67 -106.51,58.53 -108.03,0 -3.3,-126.47 -52.34,-240.62 -143.9,-340.67 -42.53,-46.46 51.44,-91.64 93.32,-45.86z"/>
  <g id="_2707538411344">
   <g>
    <path class="fil6" d="M5894.78 5968.17c0,63.73 -51.66,115.39 -115.37,115.39 -63.72,0 -115.4,-51.66 -115.4,-115.39 0,-63.72 51.68,-115.39 115.4,-115.39 63.71,0 115.37,51.67 115.37,115.39z"/>
    <path class="fil6" d="M8183.05 5968.17c0,63.73 -51.68,115.39 -115.39,115.39 -63.72,0 -115.37,-51.66 -115.37,-115.39 0,-63.72 51.65,-115.39 115.37,-115.39 63.71,0 115.39,51.67 115.39,115.39z"/>
    <path class="fil6" d="M7048.96 6470.87c-163.41,0 -266.25,27.07 -267.26,27.26l-8.28 1.46c-29.09,2.01 -714.36,57.43 -891.39,717.96 -121.37,452.73 -121.28,748.86 0.26,931.6 82.14,123.66 222.45,197.56 428.91,225.72 125.38,17.2 264.39,26.16 402.06,26.16 249.31,0 1077.37,-35.85 1264.57,-497.17 195.34,-481.26 226.22,-1073.56 -272.94,-1292.52 -265.05,-116.14 -503.01,-140.47 -655.93,-140.47zm-335.67 2016.68l-0.03 0c-141.53,0 -284.61,-9.32 -413.79,-26.89 -232.51,-31.82 -392.54,-117.98 -489.24,-263.58 -136.31,-205.05 -140.05,-523.52 -11.78,-1001.86 185.61,-692.53 901.45,-775.57 964.65,-781.61 21.56,-5.49 126.37,-29.46 285.86,-29.46 161.21,0 411.88,25.8 690.68,147.99 556.01,243.64 529.02,885.33 318.36,1404.27 -207.52,511.44 -1081.65,551.14 -1344.71,551.14z"/>
    <path class="fil6" d="M6710.34 7158.27c-0.93,91.64 -9.28,186.22 7.87,276.76 17.38,91.82 54.05,175.24 88.44,261.57 33.98,85.24 173.54,48.11 139.08,-38.42 -29.77,-74.63 -61.94,-147.61 -81.71,-225.9 -22.18,-87.62 -10.37,-184.56 -9.45,-274.01 0.95,-93.1 -143.27,-92.92 -144.22,0z"/>
    <path class="fil6" d="M6313.25 7641.92c175.46,145.24 397.33,135.54 612.33,109.39 238.34,-28.91 427.11,-134.27 600.12,-294.51 68.39,-63.29 -33.86,-164.98 -101.96,-101.88 -140.7,130.23 -282.94,207.61 -471.86,247.3 -166.14,34.76 -398.55,51.96 -536.67,-62.37 -71.04,-58.72 -173.68,42.61 -101.96,102.07z"/>
    <path class="fil6" d="M6482.01 6927.43c24.03,36.22 28.85,45.73 69.69,64.94 31.24,14.45 64.9,26.52 96.16,43.35 60.09,31.27 103.35,110.48 185.06,81.76 43.27,-17.02 72.13,-72.26 108.18,-103.53 33.65,-23.96 69.7,-33.47 108.16,-45.54 72.1,-21.77 173.06,-45.73 209.11,-117.8 40.87,-84.14 -9.6,-163.54 -93.74,-182.74 -74.5,-16.83 -156.23,-9.69 -230.76,-9.69 -79.3,0 -158.63,12.07 -233.15,43.35 -36.03,14.45 -69.69,36.03 -108.14,52.87 -33.67,12.07 -69.7,24.14 -98.56,48.1 -33.65,28.91 -62.5,86.52 -26.45,127.5 26.45,31.1 72.13,43.17 108.16,60l-93.72 -62.56z"/>
   </g>
   <g>
    <path class="fil6" d="M10925.36 5150.51c0,52.55 -42.59,95.17 -95.16,95.17 -52.61,0 -95.23,-42.62 -95.23,-95.17 0,-52.57 42.62,-95.19 95.23,-95.19 52.57,0 95.16,42.62 95.16,95.19z"/>
    <path class="fil6" d="M12813.23 5150.51c0,52.55 -42.61,95.17 -95.16,95.17 -52.55,0 -95.17,-42.62 -95.17,-95.17 0,-52.57 42.62,-95.19 95.17,-95.19 52.55,0 95.16,42.62 95.16,95.19z"/>
    <path class="fil6" d="M11742.57 5483.64c-122.49,0 -199.6,28.53 -200.37,28.81l-6.19 1.46c-21.85,2.1 -535.61,60.46 -668.35,755.02 -90.98,476.13 -90.93,787.45 0.21,979.79 61.57,130.11 166.77,207.64 321.59,237.29 93.97,17.95 198.21,27.55 301.41,27.55 186.94,0 807.77,-37.67 948.05,-522.84 146.51,-506.18 169.64,-1129.09 -204.62,-1359.17 -198.73,-122.23 -377.08,-147.91 -491.73,-147.91zm-251.65 2120.92l-0.05 0c-106.1,0 -213.36,-9.86 -310.18,-28.42 -174.33,-33.41 -294.36,-124.07 -366.84,-276.98 -102.21,-215.78 -104.97,-550.52 -8.82,-1053.81 139.17,-728.15 675.86,-815.57 723.21,-821.81 16.23,-5.68 94.76,-30.87 214.34,-30.87 120.89,0 308.79,26.98 517.79,155.53 416.87,256.26 396.63,930.91 238.66,1476.81 -155.53,537.74 -810.94,579.56 -1008.11,579.56z"/>
    <path class="fil6" d="M11488.68 6116.47c-0.66,110.38 -6.97,224.41 5.92,333.67 13.02,110.63 40.49,211.12 66.31,315.19 25.49,102.79 130.09,57.95 104.27,-46.29 -22.32,-90.02 -46.44,-177.97 -61.29,-272.28 -16.65,-105.63 -7.79,-222.52 -7.07,-330.29 0.74,-112.17 -107.43,-112.06 -108.13,0z"/>
    <path class="fil6" d="M11190.97 6715.17c131.54,152.7 297.92,142.59 459.1,115.11 178.69,-30.38 320.16,-141.25 449.95,-309.73 51.23,-66.55 -25.44,-173.53 -76.48,-107.2 -105.45,136.97 -212.14,218.35 -353.79,260.08 -124.56,36.65 -298.8,54.74 -402.31,-65.46 -53.32,-61.87 -130.23,44.76 -76.48,107.2z"/>
    <path class="fil6" d="M11317.55 5963.93c17.95,37.88 21.6,48.05 52.22,68.25 23.41,15.19 48.65,27.83 72.12,45.52 45,32.84 77.44,116.2 138.69,85.91 32.43,-17.74 54.12,-75.85 81.11,-108.68 25.22,-25.3 52.27,-35.38 81.11,-48.03 54.05,-22.74 129.73,-48.01 156.78,-123.87 30.62,-88.48 -7.2,-171.92 -70.3,-192.06 -55.83,-17.73 -117.12,-10.14 -172.99,-10.14 -59.48,0 -118.97,12.61 -174.86,45.52 -26.97,15.11 -52.25,37.86 -81.02,55.59 -25.25,12.61 -52.31,25.27 -73.9,50.55 -25.25,30.29 -46.85,91.01 -19.79,133.95 19.79,32.9 54.03,45.53 81.02,63.19l-70.19 -65.71z"/>
   </g>
   <path class="fil6" d="M2646.6 11826.64c-13.27,28.05 -31.51,51.68 -54.73,70.91 -23.23,19.22 -46.45,30.16 -69.67,32.78 -43.12,4.9 -64.69,-22.52 -64.69,-82.23 53.08,-231.61 97.86,-461.43 134.36,-689.5 36.49,-228.07 68,-456.4 94.54,-685 26.54,-228.59 51.42,-457.83 74.64,-687.7 23.22,-229.88 48.1,-464.09 74.64,-702.64 6.64,-47.19 26.55,-86.77 59.72,-118.74 33.17,-31.96 69.66,-50.2 109.47,-54.72 43.12,-4.89 74.64,8.12 94.55,39.03 13.27,25.05 30.68,103.51 52.25,235.42 21.56,131.91 47.27,287.4 77.13,466.47 29.86,179.07 63.03,365.23 99.52,558.46 36.5,193.25 77.97,363.54 124.41,510.86 66.35,214.73 121.91,368.5 166.69,461.28 44.79,92.78 88.75,136.72 131.87,131.83 46.44,-5.28 87.91,-61.4 124.4,-168.39 36.5,-106.97 68.84,-240.03 97.04,-399.14 28.2,-159.12 52.25,-333.53 72.15,-523.21 19.9,-189.7 36.49,-370.73 49.76,-543.07 13.27,-172.35 24.88,-322.95 34.83,-451.8 9.95,-128.84 18.24,-213.56 24.89,-254.12 6.63,-37.24 18.24,-63.44 34.83,-78.6 16.59,-15.15 33.17,-23.67 49.76,-25.55 33.17,-3.77 64.69,5.93 94.54,29.08 29.86,23.15 44.78,47.99 44.78,74.53l0 9.95c9.95,75.17 23.22,191.44 39.82,348.79 16.59,157.35 43.12,341.77 79.61,553.27 0,0 6.63,35.73 19.9,107.21 13.27,71.47 32.34,161.37 57.22,269.68 24.88,108.31 54.73,228.49 89.57,360.55 34.84,132.05 75.48,258.49 121.92,379.27 46.44,120.8 97.86,226.92 154.26,318.38 56.39,91.46 116.1,151.87 179.13,181.2 19.9,14.33 38.15,24.7 54.73,31.1 16.59,6.41 35.67,10.88 57.23,13.41 21.56,2.53 47.27,4.59 77.13,6.17 29.86,1.59 68,3.06 114.45,4.43 49.77,-2.33 74.65,16.42 74.65,56.22 0,29.86 -13.27,60.39 -39.82,91.59 -26.54,31.21 -58.05,48.89 -94.54,53.03 -66.35,7.53 -131.03,5.76 -194.07,-5.34 -63.03,-11.09 -122.74,-35 -179.13,-71.72 -79.62,-50.69 -155.92,-138.23 -228.9,-262.63 -72.98,-124.42 -140.16,-269.39 -201.53,-434.93 -61.37,-165.54 -115.28,-341.04 -161.73,-526.53 -46.44,-185.48 -82.93,-364.63 -109.47,-537.43 -36.49,236.36 -69.66,452.43 -99.52,648.23 -29.86,195.8 -63.87,363.87 -102.02,504.22 -38.15,140.34 -83.76,251.68 -136.84,334 -53.08,82.33 -119.43,128.01 -199.05,137.06 -79.61,5.72 -151.78,-35.03 -216.46,-122.24 -64.69,-87.2 -122.74,-200.86 -174.17,-340.99 -51.42,-140.13 -97.86,-295.76 -139.33,-466.87 -41.47,-171.12 -77.96,-339.48 -109.47,-505.09 -31.52,-165.61 -57.23,-316.12 -77.14,-451.54 -19.9,-135.41 -36.49,-237.19 -49.76,-305.36 -36.49,398.91 -77.13,800.79 -121.91,1205.62 -44.79,404.83 -116.94,828.53 -216.46,1271.07z"/>
   <path id="1" class="fil6" d="M5602.41 10068c0,76.3 -4.98,165.59 -14.93,267.91 -9.95,102.31 -14.93,204.89 -14.93,307.73 0,106.15 5.81,207.51 17.42,304.05 11.61,96.55 32.34,174.65 62.2,234.29l0 24.88c0,33.17 -10.78,63.42 -32.34,90.76 -21.56,27.33 -45.61,42.5 -72.16,45.51 -36.49,4.14 -66.35,-14.87 -89.57,-57.02 -23.22,-42.15 -40.64,-95.73 -52.25,-160.76 -11.61,-65.03 -19.07,-138.01 -22.39,-218.9 -3.32,-80.89 -4.98,-156.18 -4.98,-225.84 0,-82.93 0,-166.7 0,-251.29 0,-84.59 4.15,-162.2 12.44,-232.81 8.29,-70.6 23.22,-128.69 44.78,-174.27 21.56,-45.57 55.56,-71 102.01,-76.27 33.18,-3.77 54.74,13.69 64.7,52.38l0 69.66zm-104.5 -490.73c-59.71,6.77 -89.57,-11.4 -89.57,-54.53 0,-33.17 17.42,-69.15 52.25,-107.94 34.83,-38.79 75.47,-60.81 121.92,-66.09 46.44,-5.28 69.66,15.32 69.66,61.76 0,72.99 -51.42,128.58 -154.26,166.79z"/>
   <path id="2" class="fil6" d="M6926.05 9863.03l0 19.9c0,36.49 -12.44,69.41 -37.32,98.78 -24.88,29.37 -50.59,45.55 -77.13,48.56 -19.9,2.26 -37.32,-6.54 -52.26,-26.41 -14.93,-19.87 -30.68,-42.96 -47.27,-69.27 -16.59,-26.32 -35.66,-49.03 -57.22,-68.14 -21.56,-19.12 -48.93,-26.81 -82.1,-23.04 -63.03,7.15 -124.41,41.5 -184.12,103.02 -59.71,61.51 -89.57,125.44 -89.57,191.78 0,9.95 3.32,24.52 9.95,43.66 13.27,41.62 62.2,89.15 146.79,142.57 84.6,53.43 175.83,111.91 273.68,175.45 97.87,63.53 185.78,130.68 263.73,201.45 77.97,70.76 116.94,144.3 116.94,220.61 0,59.71 -15.76,112.92 -47.27,159.61 -31.52,46.72 -71.33,87.73 -119.43,123.04 -48.1,35.32 -101.18,62.9 -159.23,82.76 -58.06,19.85 -113.63,32.8 -166.7,38.83 -92.88,10.54 -181.63,0.71 -266.22,-29.5 -84.59,-30.21 -160.9,-72.97 -228.9,-128.28 -68,-55.31 -124.4,-121.06 -169.19,-197.26 -44.78,-76.19 -73.81,-156.66 -87.08,-241.41 0,-36.49 11.61,-70.15 34.83,-100.99 23.22,-30.82 49.76,-47.94 79.61,-51.33 29.87,-3.39 54.74,8.71 74.65,36.31 9.95,65.22 33.17,129.76 69.66,193.63 36.49,63.86 82.1,121.71 136.85,173.56 54.73,51.84 114.45,92.33 179.13,121.48 64.69,29.15 130.21,39.96 196.56,32.42 13.27,-1.5 34,-6.34 62.2,-14.52 28.2,-8.17 57.22,-20.59 87.09,-37.25 29.86,-16.66 56.39,-36.26 79.61,-58.8 23.22,-22.53 34.83,-47.07 34.83,-73.61 0,-33.17 -18.24,-66.77 -54.73,-100.79 -36.49,-34 -82.11,-68.63 -136.85,-103.88 -54.73,-35.25 -111.96,-71.05 -171.67,-107.41 -59.72,-36.35 -114.46,-71.6 -164.21,-105.76 -16.59,-14.7 -38.98,-32.06 -67.17,-52.09 -28.2,-20.01 -56.39,-41.7 -84.6,-65.05 -28.2,-23.33 -53.08,-48.71 -74.64,-76.12 -21.56,-27.41 -32.34,-56.03 -32.34,-85.89 0,-82.94 15.76,-160.2 47.27,-231.78 31.51,-71.58 71.32,-134.99 119.43,-190.21 48.1,-55.21 102.01,-99.49 161.72,-132.8 59.71,-33.31 119.43,-53.37 179.14,-60.14 69.66,-7.9 131.86,5.77 186.61,41.02 54.73,35.26 93.71,96.35 116.93,183.29z"/>
   <path id="3" class="fil6" d="M7662.53 9834.17c0,76.3 -4.98,165.6 -14.93,267.92 -9.95,102.31 -14.93,204.88 -14.93,307.72 0,106.15 5.81,207.51 17.42,304.05 11.61,96.55 32.34,174.65 62.2,234.29l0 24.88c0,33.17 -10.78,63.42 -32.34,90.76 -21.56,27.33 -45.61,42.5 -72.16,45.51 -36.49,4.14 -66.35,-14.86 -89.57,-57.02 -23.22,-42.15 -40.64,-95.73 -52.25,-160.76 -11.61,-65.03 -19.07,-138 -22.39,-218.9 -3.32,-80.89 -4.98,-156.18 -4.98,-225.84 0,-82.93 0,-166.7 0,-251.29 0,-84.59 4.15,-162.19 12.44,-232.81 8.29,-70.6 23.22,-128.68 44.78,-174.26 21.56,-45.58 55.56,-71 102.01,-76.28 33.18,-3.77 54.74,13.69 64.7,52.38l0 69.66zm-104.5 -490.73c-59.71,6.77 -89.57,-11.39 -89.57,-54.52 0,-33.17 17.42,-69.16 52.25,-107.95 34.83,-38.79 75.47,-60.81 121.92,-66.09 46.44,-5.27 69.66,15.32 69.66,61.76 0,72.99 -51.42,128.58 -154.26,166.79z"/>
   <path id="4" class="fil6" d="M8015.83 10435.99c3.32,-136.39 17.42,-261.56 42.3,-375.52 24.88,-113.96 56.4,-212.9 94.55,-296.86 38.15,-83.95 81.27,-151.05 129.37,-201.28 48.1,-50.25 97.04,-78.2 146.8,-83.84 59.71,-6.77 112.79,0.47 159.23,21.73 46.45,21.27 84.6,51.77 114.46,91.5 29.86,39.75 52.25,86.14 67.17,139.18 14.93,53.05 22.39,107.76 22.39,164.16 0,165.86 -48.1,299.04 -144.3,399.53 -96.21,100.49 -213.97,158.65 -353.31,174.46 -33.17,3.77 -56.39,4.75 -69.66,2.94 6.63,125.3 30.68,216.28 72.15,272.96 41.47,56.66 110.31,79.53 206.51,68.61 59.71,-6.77 120.26,-26.09 181.63,-57.93 61.37,-31.84 120.25,-68.38 176.64,-109.63 56.4,-41.23 110.31,-85.5 161.73,-132.8 51.42,-47.3 97.03,-91.45 136.85,-132.46 19.9,-12.21 39.81,-19.44 59.71,-21.71 49.76,-5.65 74.64,16.42 74.64,66.18 0,26.54 -13.27,57.06 -39.81,91.59 -26.54,34.52 -59.71,69.8 -99.52,105.83 -39.82,36.05 -82.11,71.53 -126.9,106.47 -44.78,34.93 -83.76,64.24 -116.93,87.91 -96.21,67.31 -184.12,117.1 -263.73,149.37 -79.62,32.25 -150.95,51.97 -213.97,59.12 -145.97,16.57 -252.12,-26.12 -318.47,-128.07 -66.36,-101.94 -99.53,-234.19 -99.53,-396.73l0 -64.7zm383.16 -745.12c-39.81,31.05 -76.31,103.21 -109.48,216.44 -33.17,113.25 -54.73,233.46 -64.69,360.65 33.17,6.18 68,7.2 104.49,3.07 79.62,-9.04 146.8,-39.89 201.53,-92.54 54.73,-52.66 82.1,-127.09 82.1,-223.29 0,-72.99 -15.76,-140.03 -47.27,-201.14 -31.51,-61.11 -70.49,-89.04 -116.93,-83.76 -19.9,2.26 -36.49,9.12 -49.76,20.57z"/>
   <path id="5" class="fil6" d="M2691.39 13664.42c9.95,-30.99 26.54,-56.92 49.76,-77.81 23.22,-20.88 46.44,-32.63 69.66,-35.27 9.95,-1.13 21.56,0.87 34.84,6 -6.63,-145.21 -14.11,-297.8 -22.4,-457.74 -8.29,-159.95 -15.76,-312.53 -22.39,-457.75 -43.12,21.49 -92.88,47.04 -149.28,76.67 -56.39,29.62 -99.53,46.12 -129.38,49.51 -46.44,5.28 -69.66,-13.65 -69.66,-56.77 0,-29.87 11.61,-57.72 34.83,-83.58 23.22,-25.86 52.25,-49.88 87.09,-72.08 34.83,-22.2 72.98,-42.29 114.45,-60.26 41.47,-17.98 78.79,-33.82 111.96,-47.54 0,-36.49 14.1,-69.61 42.31,-99.36 28.2,-29.74 55.56,-46.11 82.1,-49.12 36.49,-4.15 59.71,18.1 69.66,66.73l0 4.99c175.83,-66.41 352.47,-118.79 529.95,-157.19 177.48,-38.39 359.1,-69.78 544.88,-94.18 49.76,-2.33 74.64,16.41 74.64,56.21 0,26.54 -10.78,53.48 -32.34,80.8 -21.56,27.33 -45.61,47.48 -72.15,60.44 -179.14,26.97 -354.96,58.53 -527.47,94.7 -172.51,36.16 -343.35,85.41 -512.54,147.74 6.63,165.12 14.93,336.68 24.88,514.69 9.95,178.01 19.9,347.73 29.86,509.15 189.09,-31.41 378.19,-83.56 567.27,-156.44 189.09,-72.88 373.21,-141.05 552.36,-204.51l19.9 -2.26c53.08,-6.03 79.61,12.52 79.61,55.65 0,23.22 -9.12,49.14 -27.37,77.75 -18.24,28.61 -42.3,47.93 -72.15,57.95 -179.14,66.78 -362.43,135.68 -549.86,206.72 -187.44,71.03 -375.7,125.58 -564.8,163.63 6.63,131.93 13.27,263.05 19.9,393.34 6.63,130.28 11.61,259.93 14.93,388.93 205.68,-29.98 407.22,-68.61 604.6,-115.89 197.39,-47.28 395.59,-108.77 594.64,-184.44l24.88 -2.82c49.76,-5.66 74.64,13.09 74.64,56.22 0,56.39 -51.42,108.67 -154.25,156.83 -102.85,48.16 -224.76,91.03 -365.75,128.59 -140.98,37.56 -284.47,70.44 -430.43,98.62 -145.97,28.18 -262.07,48.82 -348.33,61.93l0 4.98c-3.32,33.55 -17.42,64.18 -42.3,91.87 -24.88,27.71 -50.59,43.06 -77.13,46.08 -36.49,4.14 -61.37,-12.94 -74.64,-51.25l0 -69.66c-43.12,1.58 -64.7,-17.54 -64.7,-57.35 0,-46.44 19.91,-85.19 59.72,-116.24 -6.63,-131.95 -12.44,-263.98 -17.42,-396.11 -4.98,-132.13 -10.78,-267.49 -17.42,-406.06 -56.4,6.39 -100.36,4.76 -131.87,-4.94 -31.51,-9.69 -47.27,-36.1 -47.27,-79.22 6.63,-27.31 9.95,-47.58 9.95,-60.85z"/>
   <path id="6" class="fil6" d="M4721.64 13030.92c6.63,-27.29 22.39,-53.96 47.27,-80.01 24.88,-26.05 50.59,-40.58 77.13,-43.58 43.12,-4.9 64.69,34.13 64.69,117.06 0,59.71 1.66,123.38 4.98,191.02 3.32,67.62 7.46,131.84 12.44,192.64 4.98,60.82 9.95,118.3 14.93,172.48 4.98,54.17 9.12,97.65 12.44,130.44l-4.98 139.9c13.28,-64.54 31.52,-148.72 54.74,-252.53 23.22,-103.81 53.08,-205.9 89.57,-306.24 36.49,-100.35 77.96,-187.17 124.4,-260.45 46.45,-73.27 97.87,-113.11 154.26,-119.51 26.54,-3.01 51.42,1.63 74.64,13.92 23.22,12.3 41.48,35.93 54.74,70.91 29.86,92.81 53.91,187.13 72.15,282.92 18.24,95.79 35.66,192.51 52.25,290.14 16.59,97.65 35.66,195 57.22,292.07 21.56,97.08 50.59,191.65 87.09,283.71l29.86 -3.39c66.35,-103.73 117.76,-198.31 154.25,-283.73 36.49,-85.42 67.18,-169.35 92.06,-251.78 24.88,-82.45 48.1,-165.53 69.66,-249.25 21.56,-83.73 50.59,-177.42 87.08,-281.09 13.27,-24.73 29.03,-45.59 47.27,-62.6 18.24,-17 37.33,-26.63 57.23,-28.89 36.49,-4.14 67.17,19.74 92.05,71.67 24.88,51.91 47.27,120.69 67.17,206.34 19.9,85.65 38.15,179.78 54.73,282.41 16.6,102.61 36.5,202.35 59.72,299.24 23.22,96.89 49.76,184.27 79.61,262.16 29.86,77.89 68,132.43 114.45,163.66 26.55,-46.14 46.45,-81.57 59.72,-106.29 13.27,-24.73 38.15,-39.17 74.64,-43.3 43.12,-4.9 64.69,17.54 64.69,67.29 0,26.54 -7.46,56.41 -22.39,89.62 -14.93,33.22 -34.83,65.34 -59.71,96.36 -24.88,31.01 -52.25,58.17 -82.1,81.46 -29.87,23.29 -58.06,36.45 -84.6,39.46 -66.35,7.53 -122.74,-29.2 -169.18,-110.17 -46.45,-80.98 -87.09,-179.21 -121.92,-294.68 -34.83,-115.48 -63.03,-234.19 -84.59,-356.15 -21.56,-121.95 -40.64,-220.15 -57.22,-294.56 -19.9,71.92 -47.28,159.63 -82.11,263.1 -34.83,103.46 -76.3,202.72 -124.4,297.76 -48.1,95.02 -99.53,177.99 -154.26,248.9 -54.73,70.9 -110.3,109.55 -166.69,115.95 -46.45,5.27 -91.23,-2.92 -134.36,-24.56 -23.22,-13.95 -45.61,-47.07 -67.17,-99.36 -21.56,-52.29 -42.3,-116.29 -62.2,-191.99 -19.91,-75.69 -38.16,-157.39 -54.74,-245.08 -16.59,-87.68 -31.51,-172.25 -44.78,-253.67 -13.27,-81.42 -25.71,-155.49 -37.32,-222.18 -11.61,-66.69 -22.39,-116.05 -32.34,-148.1 -79.61,158.32 -133.53,318.7 -161.73,481.12 -28.2,162.45 -55.56,326.45 -82.1,492.01 -6.63,37.24 -12.44,86.01 -17.42,146.29 -4.98,60.27 -13.27,120.1 -24.88,179.47 -11.61,59.37 -29.03,111.94 -52.25,157.7 -23.22,45.76 -54.74,70.9 -94.55,75.42 -39.81,4.52 -70.49,-7.75 -92.05,-36.82 -21.56,-29.07 -37.32,-65.43 -47.27,-109.08 -9.95,-43.66 -15.76,-86.96 -17.42,-129.89 -1.66,-42.94 -2.49,-77.68 -2.49,-104.21 0,-92.89 3.32,-186.16 9.95,-279.79 6.63,-93.65 9.95,-186.91 9.95,-279.79 -6.63,-85.51 -14.93,-184.92 -24.88,-298.24 -9.95,-113.32 -14.93,-261.21 -14.93,-443.66z"/>
   <path id="7" class="fil6" d="M8160.12 13576.16c-9.95,74.12 -38.15,142.83 -84.6,206.16 -46.44,63.32 -103.66,119.57 -171.67,168.77 -68.01,49.18 -141.82,91.56 -221.44,127.14 -79.61,35.58 -154.26,62.3 -223.93,80.15l4.98 74.08c6.63,115.36 20.73,234.84 42.3,358.46 21.56,123.61 32.34,248.45 32.34,374.5 0,29.86 -0.83,60.65 -2.49,92.35 -1.66,31.7 -6.63,62.12 -14.93,91.25 -8.29,29.15 -20.73,53.78 -37.32,73.9 -16.59,20.13 -41.47,32.07 -74.64,35.84 -36.49,4.15 -63.03,-12.75 -79.62,-50.67 -16.59,-37.93 -28.2,-83.05 -34.83,-135.38 -6.63,-52.33 -10.78,-106.59 -12.44,-162.8 -1.66,-56.21 -4.15,-99.05 -7.46,-128.53l-34.83 -618.06c-29.86,-6.56 -61.37,-15.43 -94.54,-26.59 -33.17,-11.16 -64.69,-25.83 -94.55,-44 -29.86,-18.18 -53.91,-38.67 -72.15,-61.47 -18.24,-22.82 -27.37,-47.5 -27.37,-74.04 0,-33.17 11.61,-61.85 34.83,-86.05 23.22,-24.2 48.1,-37.81 74.64,-40.82 19.91,-2.26 34.84,0.19 44.79,7.35 9.95,7.16 19.07,16.08 27.37,26.75 8.29,10.67 17.42,22.07 27.37,34.21 9.95,12.14 23.22,22.25 39.81,30.32 -3.32,-198.67 -5.81,-394.11 -7.46,-586.33 -1.66,-192.22 -2.49,-387.85 -2.49,-586.9 3.32,-33.54 19.07,-63.53 47.27,-89.97 28.2,-26.42 55.56,-41.14 82.1,-44.14 46.45,-5.28 71.33,18.43 74.65,71.15l0 343.35c46.44,-38.45 97.86,-60.87 154.25,-67.27 69.67,-7.9 140.99,6.39 213.97,42.89 72.98,36.5 139.34,85.36 199.05,146.6 59.71,61.22 107.81,127.09 144.3,197.59 36.5,70.5 54.74,135.61 54.74,195.32l0 24.88zm-706.61 -297.98c-6.63,33.93 -11.61,67.66 -14.93,101.22 -3.32,33.55 -4.98,68.57 -4.98,105.06 0,76.3 5.81,154.43 17.42,234.4 11.61,79.95 22.39,157.51 32.34,232.68 56.39,-6.39 111.97,-21.83 166.7,-46.28 54.73,-24.46 104.49,-52.5 149.28,-84.12 44.78,-31.62 80.45,-68.01 106.99,-109.17 26.54,-41.17 39.81,-81.66 39.81,-121.47 0,-33.17 -14.1,-73.87 -42.3,-122.08 -28.2,-48.22 -63.87,-94.77 -106.99,-139.64 -43.12,-44.86 -87.91,-82.07 -134.35,-111.64 -46.44,-29.56 -87.92,-42.27 -124.41,-38.13 -43.12,4.9 -71.32,37.96 -84.59,99.17z"/>
   <path id="8" class="fil6" d="M8418.87 13840.37c-49.76,-73.96 -74.64,-157.39 -74.64,-250.28 0,-96.2 22.39,-195.77 67.17,-298.72 44.78,-102.94 103.67,-198.36 176.65,-286.26 72.98,-87.9 155.09,-161.91 246.32,-222.02 91.22,-60.13 183.29,-95.46 276.17,-106 53.08,-6.03 99.52,-4.66 139.33,4.1l14.94 -215.66c9.95,-27.68 26.54,-51.95 49.76,-72.83 23.22,-20.88 48.1,-32.83 74.64,-35.84 29.86,-3.39 51.42,10.75 64.69,42.42 -3.32,143.03 -6.63,281.9 -9.95,416.64 -3.32,134.73 -4.98,268.45 -4.98,401.15 0,169.18 6.63,330.98 19.9,485.39 13.27,154.41 41.47,302.16 84.6,443.23l4.98 -0.57c49.76,4.31 74.64,24.7 74.64,61.19 0,26.54 -16.59,56.63 -49.76,90.25 -33.17,33.62 -69.67,52.7 -109.48,57.21 -39.81,4.52 -72.98,-19.08 -99.52,-70.8 -26.54,-51.74 -47.27,-116.55 -62.2,-194.48 -14.93,-77.93 -25.71,-160.47 -32.34,-247.63 -6.63,-87.16 -11.61,-162.07 -14.93,-224.72 -46.45,114.75 -111.97,204.29 -196.56,268.63 -84.6,64.34 -173.34,101.78 -266.22,112.32 -72.99,8.28 -141.82,-0.49 -206.51,-26.32 -64.69,-25.83 -120.26,-69.28 -166.7,-130.37zm696.66 -322.88c29.86,-56.47 53.91,-123.07 72.15,-199.78 18.24,-76.71 27.37,-148.25 27.37,-214.59 0,-86.25 -12.44,-146.21 -37.32,-179.88 -24.88,-33.66 -67.17,-47.11 -126.89,-40.33 -59.71,6.77 -120.26,31.89 -181.63,75.35 -61.37,43.45 -116.1,96.95 -164.21,160.46 -48.1,63.52 -87.08,130.96 -116.93,202.37 -29.86,71.39 -44.78,138.6 -44.78,201.62 0,89.58 28.2,156.04 84.59,199.4 56.39,43.36 112.8,61.84 169.19,55.43 56.39,-6.39 113.62,-33.62 171.67,-81.68 58.06,-48.05 106.99,-107.51 146.8,-178.37z"/>
   <path id="9" class="fil6" d="M9782.33 13297.48c-59.71,6.78 -89.57,-13.05 -89.57,-59.49 0,-23.22 8.29,-47.38 24.88,-72.5 16.59,-25.1 38.15,-45.79 64.69,-62.08l233.88 -76.3c-6.63,-214.88 -9.95,-428.48 -9.95,-640.78 0,-212.32 -3.32,-425.92 -9.95,-640.79 -3.32,-39.44 -11.61,-99.03 -24.88,-178.81 -13.27,-79.76 -19.9,-157.8 -19.9,-234.1 0,-63.04 9.12,-118.8 27.37,-167.31 18.24,-48.52 47.27,-75.03 87.08,-79.55 26.54,-3.01 48.93,20.16 67.17,69.5 18.24,49.35 32.34,111.61 42.3,186.79 9.96,75.17 16.6,156.51 19.91,244.06 3.32,87.53 4.98,167.78 4.98,240.77 0,72.98 -0.83,132.79 -2.49,179.41 -1.66,46.63 -2.49,64.98 -2.49,55.02 0,63.04 -0.83,141.91 -2.49,236.65 -1.66,94.74 -2.49,200.16 -2.49,316.27 0,56.39 0,115.28 0,176.64 0,61.37 1.66,121.73 4.98,181.07 119.42,-33.46 239.67,-64.53 360.76,-93.19 121.08,-28.68 241.34,-58.08 360.76,-88.22 49.77,4.3 74.65,24.7 74.65,61.19 0,26.54 -10.78,53.47 -32.35,80.79 -21.56,27.33 -45.61,47.47 -72.15,60.44 -116.1,26.45 -230.56,52.71 -343.35,78.78 -112.8,26.07 -225.58,55.46 -338.37,88.18 6.63,168.42 8.29,306.74 4.98,414.93 -3.32,108.2 16.59,194.68 59.71,259.45l89.57 -59.93c19.9,-12.21 39.81,-19.44 59.71,-21.7 23.23,-2.64 41.48,2.76 54.74,16.18 13.27,13.42 19.9,30.09 19.9,49.99 0,29.86 -14.93,61.41 -44.78,94.66l-139.34 125.29c-26.54,19.59 -49.76,30.52 -69.66,32.78 -66.36,7.53 -114.46,-18.52 -144.31,-78.17 -29.86,-59.64 -49.76,-135.35 -59.71,-227.09 -9.95,-91.75 -14.1,-187.5 -12.44,-287.2 1.66,-99.72 0.83,-187.54 -2.49,-263.45 -39.81,11.15 -79.61,23.96 -119.43,38.44 -39.81,14.47 -79.61,28.94 -119.42,43.4z"/>
   <path id="10" class="fil6" d="M11180.62 12581.46c0,76.3 -4.98,165.59 -14.93,267.91 -9.95,102.31 -14.93,204.89 -14.93,307.73 0,106.15 5.81,207.51 17.42,304.05 11.61,96.55 32.34,174.64 62.2,234.28l0 24.88c0,33.17 -10.78,63.43 -32.34,90.77 -21.56,27.33 -45.61,42.5 -72.16,45.5 -36.49,4.15 -66.35,-14.86 -89.57,-57.01 -23.22,-42.15 -40.64,-95.74 -52.25,-160.77 -11.61,-65.03 -19.07,-138 -22.39,-218.89 -3.32,-80.9 -4.98,-156.19 -4.98,-225.85 0,-82.93 0,-166.7 0,-251.29 0,-84.59 4.15,-162.19 12.44,-232.8 8.29,-70.6 23.22,-128.69 44.78,-174.27 21.56,-45.58 55.56,-71 102.01,-76.28 33.18,-3.76 54.74,13.7 64.7,52.39l0 69.66zm-104.5 -490.73c-59.71,6.77 -89.57,-11.4 -89.57,-54.53 0,-33.17 17.42,-69.16 52.25,-107.94 34.83,-38.79 75.47,-60.82 121.92,-66.09 46.44,-5.28 69.66,15.31 69.66,61.75 0,72.99 -51.42,128.58 -154.26,166.8z"/>
   <path id="11" class="fil6" d="M12504.26 12376.49l0 19.9c0,36.49 -12.44,69.41 -37.32,98.78 -24.88,29.36 -50.59,45.54 -77.13,48.56 -19.9,2.26 -37.32,-6.54 -52.26,-26.42 -14.93,-19.86 -30.68,-42.95 -47.27,-69.27 -16.59,-26.31 -35.66,-49.03 -57.22,-68.14 -21.56,-19.12 -48.93,-26.8 -82.1,-23.03 -63.03,7.15 -124.41,41.5 -184.12,103.01 -59.71,61.52 -89.57,125.45 -89.57,191.79 0,9.95 3.32,24.51 9.95,43.66 13.27,41.62 62.2,89.14 146.79,142.56 84.6,53.43 175.83,111.92 273.68,175.45 97.87,63.54 185.78,130.69 263.73,201.46 77.97,70.76 116.94,144.29 116.94,220.6 0,59.71 -15.76,112.92 -47.27,159.62 -31.52,46.71 -71.33,87.72 -119.43,123.04 -48.1,35.31 -101.18,62.9 -159.23,82.76 -58.06,19.85 -113.63,32.79 -166.7,38.82 -92.88,10.54 -181.63,0.71 -266.22,-29.5 -84.59,-30.21 -160.9,-72.96 -228.9,-128.27 -68,-55.31 -124.4,-121.06 -169.19,-197.26 -44.78,-76.2 -73.81,-156.66 -87.08,-241.41 0,-36.49 11.61,-70.15 34.83,-100.99 23.22,-30.83 49.76,-47.94 79.61,-51.33 29.87,-3.4 54.74,8.71 74.65,36.31 9.95,65.22 33.17,129.76 69.66,193.62 36.49,63.87 82.1,121.72 136.85,173.57 54.73,51.84 114.45,92.33 179.13,121.48 64.69,29.15 130.21,39.96 196.56,32.42 13.27,-1.51 34,-6.34 62.2,-14.52 28.2,-8.18 57.22,-20.59 87.09,-37.26 29.86,-16.66 56.39,-36.25 79.61,-58.79 23.22,-22.54 34.83,-47.08 34.83,-73.62 0,-33.17 -18.24,-66.76 -54.73,-100.78 -36.49,-34 -82.11,-68.63 -136.85,-103.88 -54.73,-35.26 -111.96,-71.06 -171.67,-107.41 -59.72,-36.35 -114.46,-71.6 -164.21,-105.76 -16.59,-14.71 -38.98,-32.06 -67.17,-52.09 -28.2,-20.02 -56.39,-41.7 -84.6,-65.05 -28.2,-23.34 -53.08,-48.71 -74.64,-76.12 -21.56,-27.41 -32.34,-56.04 -32.34,-85.9 0,-82.94 15.76,-160.2 47.27,-231.78 31.51,-71.58 71.32,-134.99 119.43,-190.2 48.1,-55.22 102.01,-99.49 161.72,-132.8 59.71,-33.32 119.43,-53.37 179.14,-60.14 69.66,-7.91 131.86,5.77 186.61,41.02 54.73,35.25 93.71,96.34 116.93,183.29z"/>
   <path id="12" class="fil6" d="M13240.73 12347.64c0,76.3 -4.98,165.59 -14.93,267.91 -9.95,102.31 -14.93,204.89 -14.93,307.73 0,106.15 5.81,207.51 17.42,304.05 11.61,96.55 32.34,174.65 62.2,234.29l0 24.88c0,33.17 -10.78,63.42 -32.34,90.76 -21.56,27.33 -45.61,42.5 -72.16,45.51 -36.49,4.14 -66.35,-14.87 -89.57,-57.02 -23.22,-42.15 -40.64,-95.73 -52.25,-160.76 -11.61,-65.04 -19.07,-138.01 -22.39,-218.9 -3.32,-80.89 -4.98,-156.19 -4.98,-225.85 0,-82.93 0,-166.7 0,-251.29 0,-84.59 4.15,-162.19 12.44,-232.8 8.29,-70.6 23.22,-128.69 44.78,-174.27 21.56,-45.58 55.56,-71 102.01,-76.27 33.18,-3.77 54.74,13.69 64.7,52.38l0 69.66zm-104.5 -490.73c-59.71,6.77 -89.57,-11.4 -89.57,-54.53 0,-33.17 17.42,-69.16 52.25,-107.94 34.83,-38.79 75.47,-60.81 121.92,-66.09 46.44,-5.28 69.66,15.32 69.66,61.76 0,72.99 -51.42,128.58 -154.26,166.79z"/>
   <path id="13" class="fil6" d="M13594.03 12949.44c3.32,-136.38 17.42,-261.55 42.3,-375.51 24.88,-113.97 56.4,-212.91 94.55,-296.86 38.15,-83.95 81.27,-151.05 129.37,-201.29 48.1,-50.24 97.04,-78.19 146.8,-83.83 59.71,-6.78 112.79,0.47 159.23,21.73 46.45,21.26 84.6,51.77 114.46,91.5 29.86,39.75 52.25,86.13 67.17,139.18 14.93,53.04 22.39,107.75 22.39,164.16 0,165.86 -48.1,299.05 -144.3,399.54 -96.21,100.49 -213.97,158.64 -353.31,174.46 -33.17,3.77 -56.39,4.75 -69.66,2.93 6.63,125.31 30.68,216.29 72.15,272.97 41.47,56.66 110.31,79.53 206.51,68.61 59.71,-6.77 120.26,-26.09 181.63,-57.93 61.37,-31.84 120.25,-68.38 176.64,-109.63 56.4,-41.24 110.31,-85.5 161.73,-132.8 51.42,-47.3 97.03,-91.45 136.85,-132.47 19.9,-12.21 39.81,-19.44 59.71,-21.7 49.76,-5.65 74.64,16.41 74.64,66.17 0,26.54 -13.27,57.07 -39.81,91.6 -26.54,34.52 -59.71,69.8 -99.52,105.83 -39.82,36.04 -82.11,71.53 -126.9,106.46 -44.78,34.94 -83.76,64.25 -116.93,87.92 -96.21,67.31 -184.12,117.09 -263.73,149.37 -79.62,32.25 -150.95,51.96 -213.97,59.11 -145.97,16.57 -252.12,-26.12 -318.47,-128.06 -66.36,-101.94 -99.53,-234.2 -99.53,-396.74l0 -64.7zm383.16 -745.11c-39.81,31.05 -76.31,103.21 -109.48,216.44 -33.17,113.24 -54.73,233.45 -64.69,360.64 33.17,6.19 68,7.21 104.49,3.07 79.62,-9.03 146.8,-39.88 201.53,-92.53 54.73,-52.67 82.1,-127.1 82.1,-223.3 0,-72.99 -15.76,-140.03 -47.27,-201.14 -31.51,-61.11 -70.49,-89.03 -116.93,-83.75 -19.9,2.26 -36.49,9.11 -49.76,20.57z"/>
  </g>
 </g>
</svg>
